<?xml version="1.0" encoding="UTF-8"?>
<!DOCTYPE svg PUBLIC "-//W3C//DTD SVG 1.1//EN" "http://www.w3.org/Graphics/SVG/1.1/DTD/svg11.dtd">
<!-- Creator: CorelDRAW X7 -->
<svg xmlns="http://www.w3.org/2000/svg" xml:space="preserve" width="250mm" height="275mm" version="1.1" style="shape-rendering:geometricPrecision; text-rendering:geometricPrecision; image-rendering:optimizeQuality; fill-rule:evenodd; clip-rule:evenodd"
viewBox="0 0 25000 27500"
 xmlns:xlink="http://www.w3.org/1999/xlink">
 <defs>
  <style type="text/css">
   <![CDATA[
    .fil4 {fill:black}
    .fil10 {fill:#020201}
    .fil14 {fill:#050100}
    .fil15 {fill:#050505}
    .fil16 {fill:#090909}
    .fil17 {fill:#0C0B0B}
    .fil11 {fill:#14D700}
    .fil3 {fill:#191919}
    .fil2 {fill:#1A1A1A}
    .fil6 {fill:#313131}
    .fil1 {fill:#D7D5D6}
    .fil8 {fill:#D8D6D7}
    .fil5 {fill:#F6C012}
    .fil18 {fill:#F77500}
    .fil13 {fill:#FC0101}
    .fil7 {fill:#FCDC0E}
    .fil0 {fill:#FE0000}
    .fil12 {fill:#FEEA00}
    .fil9 {fill:#FF7800}
   ]]>
  </style>
 </defs>
 <g id="Layer_x0020_1">
  <metadata id="CorelCorpID_0Corel-Layer"/>
  <path class="fil0" d="M14001 9864c35,-92 72,-154 104,-255 27,-87 27,-207 73,-277 195,36 638,469 746,604 138,173 421,566 501,818l-664 -504c-206,-138 -501,-306 -760,-386zm-2421 -1066c-488,218 -749,298 -1223,635 -749,533 -1324,1114 -1874,1848 -134,179 -255,345 -385,540l-371 584c52,80 207,251 269,312 184,184 617,753 763,961 203,289 352,365 75,726 -150,196 -452,341 -821,318 -118,-223 -677,-1215 -829,-1320 -22,97 -72,171 -117,260 -165,328 -440,1059 -538,1410l-173 604 7 86c182,-89 349,-236 598,-263 343,-37 383,265 200,477l19 61c341,-58 606,-120 973,-98 284,17 651,113 778,294l5514 -2371c-148,-214 -52,-640 36,-859l49 -143c-23,21 -39,36 -74,71 -11,11 -26,27 -39,38 -37,33 -3,10 -47,35 -201,243 -444,614 -833,708 -30,15 -36,19 -60,36l-62 50c-3,-5 -11,9 -15,14l382 -8c103,31 44,-53 64,84 -318,1 -637,19 -947,61 -411,57 -554,133 -789,174 204,-117 431,-149 620,-242 -509,-230 -246,-1002 -47,-1397 183,-361 342,-580 584,-865 74,-86 163,-151 239,-236 716,-805 2246,-1134 1516,666l115 -84c185,-286 1079,-1022 1614,-596 0,-171 -25,-243 -25,-391 -257,-72 -488,-12 -739,-31 216,-118 395,-209 639,-292 -99,-179 -54,-169 -244,-453 -102,-152 -183,-261 -311,-388 -461,-456 -1097,-888 -1739,-1083 -362,-110 -746,-198 -1228,-196 -295,18 -532,22 -822,79 -248,49 -484,141 -702,184z"/>
  <path class="fil1" d="M6762 23493c-124,0 -254,33 -371,56 -886,173 -1567,320 -2388,734 -287,145 -865,544 -689,1031 341,943 2894,1371 3837,1508 2558,372 7466,260 9406,-902 1190,-713 560,-1363 -447,-1811 -626,-279 -1739,-533 -2485,-637 -126,-18 -284,-52 -398,-54 62,273 363,843 490,1111 267,566 234,735 -341,934 -783,271 -1797,475 -2695,491 -1334,25 -2180,-258 -3244,-767 -183,-88 -171,-176 -293,-505 -142,-380 -273,-791 -382,-1189z"/>
  <path class="fil0" d="M6762 23493c109,398 240,809 382,1189 122,329 110,417 293,505 1064,509 1910,792 3244,767 898,-16 1912,-220 2695,-491 575,-199 608,-368 341,-934 -127,-268 -428,-838 -490,-1111 -79,-185 -147,-396 -209,-614 -47,-166 -139,-508 -139,-692l-127 527c-183,-97 -369,-318 -561,-423 -1579,505 -2909,772 -4604,175 -734,-258 -715,-336 -1227,-576 4,201 333,1551 402,1678z"/>
  <path class="fil0" d="M7309 6297c179,-68 446,-216 630,-305 203,-97 419,-182 632,-266 437,-174 895,-327 1368,-456 1111,-304 1994,-414 3210,-441 25,-321 -261,-1498 -178,-2218 115,-1000 509,-1565 585,-1865 -237,-21 -312,-51 -502,-139 -979,174 -1677,624 -2402,1156 -139,102 -277,201 -413,311l-579 471c-77,62 -130,115 -203,171 -73,56 -108,97 -189,160l-567 507c-431,415 -715,650 -967,1156 -239,479 -425,1183 -425,1758z"/>
  <path class="fil2" d="M15102 13574l-657 288 -5514 2371 -926 408c51,-119 129,-146 200,-240 -271,145 -538,431 -668,727 -71,163 -133,344 -172,527 -65,306 -52,375 67,593l980 -106 1478 -190c-135,-430 -559,-1679 341,-1757 -79,416 -219,525 -86,1017 50,186 233,704 397,847 -61,-228 -238,-472 -316,-755 -296,-1076 532,-2061 1221,-1228 -363,483 -284,350 -622,968 -205,374 216,1033 243,1191 -45,-497 -418,-748 -140,-1288 103,-202 343,-619 499,-775 95,-93 163,-107 328,-124 583,-59 931,374 632,884 -174,299 -526,672 -998,702l301 5 8 77 740 -86c98,-125 273,-492 379,-569 297,-215 335,239 329,488 121,-8 247,-37 381,-52 121,-13 251,-34 377,-48 258,-28 521,-63 774,-104 207,-25 703,-148 874,-70 101,-72 22,-35 149,-54 71,-10 94,-19 163,-21 -21,-55 -131,-93 -177,-134 -592,-529 -658,-2081 -504,-2828 117,-565 195,-595 429,-863l-510 199z"/>
  <path class="fil0" d="M8412 18142c142,105 500,413 432,717 -58,262 -376,470 -723,410l-9 45c-35,546 -602,701 -981,419 -13,30 13,19 -53,36 -211,218 -577,-33 -667,-148 -180,-226 -315,-545 -376,-608 0,172 27,248 25,434 -3,262 80,1037 131,1299 182,220 669,449 1013,579 392,149 827,255 1274,325 969,152 2016,137 2983,-9l-101 -91c65,-158 395,-655 497,-777 81,-97 271,-148 415,-210 128,-55 351,-179 482,-165l-8 -301c-29,-39 -528,-364 -596,-406 -151,87 -406,338 -633,318 -141,-160 -80,-329 46,-487 -6,-4 -15,-7 -19,-9l-186 -62 121 -41c9,-1 77,-4 86,-4 -121,-1 -62,-17 -83,-39 -280,-75 -823,-373 -987,-533 -143,-139 -218,-216 -347,-403 -109,-158 -163,-309 -258,-479l-1478 190z"/>
  <path class="fil3" d="M7033 8155c-97,75 -58,83 -188,103 -36,66 -193,135 -294,193 -108,60 -211,125 -313,187 -136,82 -501,344 -603,375 0,1 -1084,819 -1318,1050 -324,321 -743,698 -1019,1054 -267,343 -509,628 -766,1008 -45,67 -71,117 -114,185 -80,127 -154,247 -229,371 -292,488 -568,1059 -772,1625 -100,276 -215,595 -276,898 -147,719 -224,1349 114,2029 73,146 269,432 379,520 325,258 484,378 944,530 701,232 1428,228 2158,190 156,-7 369,-39 536,-64 190,-27 347,-46 511,-85 -163,-711 -280,-734 254,-1448 580,-775 487,-547 1143,-839l-19 -61c-651,236 -718,281 -1060,716 -427,544 -569,672 -494,1229 -252,85 -566,199 -593,-172 -464,37 -476,27 -928,0 -746,-45 -1548,-407 -1907,-1065 -136,-249 -210,-414 -268,-706 -118,-587 -106,-1165 92,-1760 304,-910 749,-1625 1366,-2355l836 -888c47,-47 77,-81 128,-122 61,-49 76,-55 135,-114l262 -238c212,-211 856,-699 1109,-889 88,-67 202,-154 297,-204 115,-136 525,-367 711,-486 512,-326 239,-56 868,-41 -144,-65 -322,-95 -476,-178 120,-111 641,-367 835,-453 651,-286 1303,-433 2019,-578 288,-59 803,-176 1082,-181 -83,-96 -167,-187 -245,-329 -104,-190 -87,-243 -147,-423 -57,77 -383,123 -494,154 -828,235 -1605,497 -2386,862 -164,76 -765,393 -870,400z"/>
  <path class="fil4" d="M5360 16854c77,-89 147,-209 220,-309 373,-516 403,-445 783,-783l-7 -86c-123,-202 -413,-1543 -473,-1845 -64,-321 -189,-1103 21,-1357 318,-383 1137,673 1280,928 152,105 711,1097 829,1320 369,23 671,-122 821,-318 277,-361 128,-437 -75,-726 -146,-208 -579,-777 -763,-961 -62,-61 -217,-232 -269,-312 -170,-135 -369,-362 -646,-571 -947,-712 -1906,-823 -2146,596 -195,1162 65,2728 303,3919 16,82 32,159 52,246l70 259z"/>
  <path class="fil0" d="M7309 6377c-65,30 -117,65 -183,102 -591,330 -1462,961 -1656,1616 -137,461 31,638 165,918 102,-31 467,-293 603,-375 102,-62 205,-127 313,-187 101,-58 258,-127 294,-193 183,-693 1962,-1687 2676,-2032 559,-270 1036,-482 1663,-685l896 -277c348,-79 770,-37 1140,-40l1033 -18c324,7 645,25 965,71 579,83 1137,240 1683,385 249,22 514,127 707,-67 142,-144 190,-423 -26,-613 -256,-226 -1015,-418 -1343,-418l278 86c172,48 586,173 651,311 -217,130 -1001,-31 -1291,-49 -1045,-65 -3258,-47 -4200,74 -1140,146 -2367,497 -3406,939 -336,143 -657,323 -962,452z"/>
  <path class="fil1" d="M10536 18627c79,89 77,99 169,172 77,61 145,96 201,148 -210,-30 -359,-106 -370,-320zm-646 -675c95,170 149,321 258,479 129,187 204,264 347,403 164,160 707,458 987,533 422,-43 847,-251 1044,-473 113,-128 218,-274 316,-457 61,-116 177,-467 237,-533 10,-126 74,-219 67,-355 6,-249 -32,-703 -329,-488 -106,77 -281,444 -379,569 -115,233 -334,413 -392,532 63,38 115,89 177,127 -313,-127 -501,-237 -525,-573l-8 -77 -301 -5c472,-30 824,-403 998,-702 299,-510 -49,-943 -632,-884 -165,17 -233,31 -328,124 -156,156 -396,573 -499,775 -278,540 95,791 140,1288 -27,-158 -448,-817 -243,-1191 338,-618 259,-485 622,-968 -689,-833 -1517,152 -1221,1228 78,283 255,527 316,755 -164,-143 -347,-661 -397,-847 -133,-492 7,-601 86,-1017 -900,78 -476,1327 -341,1757z"/>
  <path class="fil1" d="M7180 16037c-656,292 -563,64 -1143,839 -534,714 -417,737 -254,1448 31,116 75,243 119,357 49,123 98,209 133,332 61,63 196,382 376,608 90,115 456,366 667,148 -52,-68 -78,-76 -143,-147 -363,-397 -473,-986 -441,-1527 117,361 -84,790 637,1638 379,282 946,127 981,-419 -311,-59 -715,-307 -893,-475 -258,-244 -411,-481 -376,-996 77,334 -4,641 412,933 255,180 484,418 866,493 347,60 665,-148 723,-410 68,-304 -290,-612 -432,-717l-980 106c-119,-218 -132,-287 -67,-593 39,-183 101,-364 172,-527 130,-296 397,-582 668,-727 -71,94 -149,121 -200,240l926 -408c-127,-181 -494,-277 -778,-294 -367,-22 -632,40 -973,98z"/>
  <path class="fil3" d="M6360 21815c512,240 493,318 1227,576 1695,597 3025,330 4604,-175 -80,-101 -254,-206 -363,-294 -125,-101 -231,-190 -367,-281 -967,146 -2014,161 -2983,9 -447,-70 -882,-176 -1274,-325 -344,-130 -831,-359 -1013,-579 -188,-4 -634,-201 -658,74 -22,241 172,499 177,725 170,40 208,5 358,91 105,61 199,128 292,179z"/>
  <path class="fil4" d="M14678 17345c168,354 324,468 571,1132 159,427 282,991 -64,1327 -376,363 -1161,-50 -1564,-274l-522 -327c-88,-59 -164,-121 -245,-172 -113,86 -254,252 -345,345l-359 315c68,42 567,367 596,406 553,245 719,436 1518,613 751,167 1585,67 1897,-580 296,-614 -50,-1583 -273,-2142l-244 -556c-33,-71 -65,-105 -92,-157 -171,-78 -667,45 -874,70z"/>
  <path class="fil1" d="M11605 5703c389,-234 1084,-234 1520,-36 347,157 919,649 876,967 -101,35 -469,93 -597,92 -67,-61 -97,-148 -124,-216l-721 207c-86,37 -138,126 -211,51 -132,-138 113,-126 400,-187 149,-31 372,-47 477,-119 -458,-578 -1361,-276 -1397,-277 -64,-123 -216,-325 -223,-482zm2606 1083c155,-847 -695,-1411 -1459,-1487 -894,-90 -1745,389 -1882,1099 -168,866 691,1435 1465,1506 893,82 1743,-394 1876,-1118z"/>
  <path class="fil5" d="M15007 1592c-108,-47 -359,6 -466,63 -104,56 -262,253 -390,89 -213,-273 227,-486 441,-562 -54,-42 -126,-115 -187,-166 -400,-328 -374,-278 -776,-254 -101,285 -249,560 -357,874 -358,1042 -249,1624 -112,2673 11,86 24,175 36,264 6,41 10,92 18,132 4,23 7,39 15,62 19,61 10,32 25,57 844,4 1651,-16 2502,9l-7 -393c-217,62 -408,171 -655,213 -346,60 -466,-259 -314,-437 84,-62 504,-119 654,-170 334,-115 305,-166 288,-532 -132,98 -188,179 -411,259 -234,84 -595,140 -832,122 -514,-38 -492,-1540 -178,-1859 4,-3 10,-8 13,-12 4,-4 9,-9 13,-13 181,-208 395,-348 680,-419z"/>
  <path class="fil6" d="M15612 13375c-234,268 -312,298 -429,863 -154,747 -88,2299 504,2828 46,41 156,79 177,134 223,-4 333,-116 428,-260 105,-159 152,-278 205,-469 106,-390 129,-746 129,-1236 -34,-10 -1096,-118 -1109,-116 231,-32 968,49 1093,-17 -25,-195 -47,-574 -109,-698l-322 -35 298 -34c-12,-152 -98,-364 -151,-481 -30,-68 -61,-133 -104,-196 -72,-108 -97,-80 -120,-229l-40 18c-151,-68 -219,-166 -450,-72z"/>
  <path class="fil1" d="M15128 5941c649,-35 1848,524 2353,840 413,260 969,710 1350,1048 77,69 376,373 493,256 184,-382 -737,-1271 -953,-1445 -757,-610 -572,-515 -1409,-938 -60,-31 -26,-9 -61,-40 -546,-145 -1104,-302 -1683,-385 -320,-46 -641,-64 -965,-71l-1033 18 -281 20c249,57 465,142 658,250 122,69 182,118 275,200 94,84 135,163 231,245 309,-9 740,-52 1025,2z"/>
  <path class="fil1" d="M12730 13881l670 -69c4,-5 12,-19 15,-14l62 -50c24,-17 30,-21 60,-36 -429,36 -211,-547 -108,-757 311,-631 1096,-1297 1215,-816 79,319 -175,645 -274,865 44,-25 10,-2 47,-35 13,-11 28,-27 39,-38 35,-35 51,-50 74,-71 56,-117 186,-260 263,-389 80,-134 168,-283 229,-422 730,-1800 -800,-1471 -1516,-666 -76,85 -165,150 -239,236 -242,285 -401,504 -584,865 -199,395 -462,1167 47,1397z"/>
  <path class="fil0" d="M6136 9408c609,300 1581,54 2201,-196 588,-237 1284,-592 1809,-937l1074 -739 -45 -45c-279,5 -794,122 -1082,181 -716,145 -1368,292 -2019,578 -194,86 -715,342 -835,453 154,83 332,113 476,178 -629,-15 -356,-285 -868,41 -186,119 -596,350 -711,486z"/>
  <path class="fil1" d="M15137 11965c-170,383 -417,813 -656,1038 -88,219 -184,645 -36,859l657 -288c117,-436 547,-906 834,-1084 258,-161 567,-181 511,235 -38,280 -200,476 -305,679 111,-59 268,-298 335,-399 264,-400 651,-1233 274,-1636 -535,-426 -1429,310 -1614,596z"/>
  <path class="fil4" d="M15773 4566c146,11 1139,181 1199,391 -314,39 -870,-64 -1200,-87l1 -304zm-959 -293c425,-191 576,24 1030,-427l1 463c-175,89 -386,168 -590,231 -280,87 -509,110 -441,-267zm314 -1056c323,94 270,21 450,-174 141,296 179,420 -113,584 -193,108 -496,181 -753,198 38,-92 349,-542 416,-608zm-575 609c-212,-2 -256,-90 -314,-272 -111,-350 -124,-907 -8,-1260l73 -150c2,-3 11,-5 12,-13 2,-8 8,-9 12,-13 169,98 351,260 519,378 247,174 -17,37 214,644l-508 686zm1052 -1238c-64,-293 -123,-50 -135,-585 32,34 40,23 69,130 13,44 21,88 33,138 72,281 139,625 144,912 -36,-34 -60,-47 -93,-140 -56,-159 32,-224 -18,-455zm-1192 -588c141,-118 404,-315 649,-345 343,-41 318,258 354,602 -295,-63 -280,42 -413,202 -85,-41 -232,-170 -311,-231 -107,-83 -180,-140 -279,-228zm-258 -459c152,-103 370,-384 711,-262 107,38 106,101 130,214 -144,23 -290,23 -420,71 -178,65 -365,345 -421,-23zm852 51c-285,71 -499,211 -680,419 -4,4 -9,9 -13,13 -3,4 -9,9 -13,12 -314,319 -336,1821 178,1859 237,18 598,-38 832,-122 223,-80 279,-161 411,-259 17,366 46,417 -288,532 -150,51 -570,108 -654,170 -152,178 -32,497 314,437 247,-42 438,-151 655,-213l7 393c-851,-25 -1658,-5 -2502,-9 -15,-25 -6,4 -25,-57 -8,-23 -11,-39 -15,-62 -8,-40 -12,-91 -18,-132 -12,-89 -25,-178 -36,-264 -137,-1049 -246,-1631 112,-2673 108,-314 256,-589 357,-874 402,-24 376,-74 776,254 61,51 133,124 187,166 -214,76 -654,289 -441,562 128,164 286,-33 390,-89 107,-57 358,-110 466,-63zm-1953 -985c190,88 265,118 502,139 -76,300 -470,865 -585,1865 -83,720 203,1897 178,2218 -1216,27 -2099,137 -3210,441 -473,129 -931,282 -1368,456 -213,84 -429,169 -632,266 -184,89 -451,237 -630,305l0 80c305,-129 626,-309 962,-452 1039,-442 2266,-793 3406,-939 942,-121 3155,-139 4200,-74 290,18 1074,179 1291,49 -65,-138 -479,-263 -651,-311l-278 -86c-63,-20 -331,-50 -412,-50 5,-221 97,-48 102,-298 3,-138 -2,-286 -2,-426 -66,-32 -27,-23 -125,-25 0,-442 1,-773 -68,-1131 -25,-127 -124,-603 -189,-710 -66,-108 -54,-16 -107,-118 -19,-36 -5,-31 -25,-75 -88,-195 -285,-60 -343,-256 -142,-490 -122,-80 -486,-413 -159,-145 -380,-284 -531,-405 -433,50 -540,27 -924,-80l-75 30z"/>
  <path class="fil1" d="M14178 6055l25 32c461,107 1616,1075 2055,1517l199 225c314,339 808,842 984,1265 103,249 147,399 289,610 208,308 353,273 241,-166 -100,-391 -201,-641 -352,-997 -58,-136 -85,-176 -152,-298 -54,-99 -107,-189 -173,-276 -473,-626 -578,-745 -1186,-1287 -128,-113 -782,-623 -905,-676l-1025 4c-14,20 -83,-33 0,47z"/>
  <path class="fil0" d="M7033 8155c105,-7 706,-324 870,-400 781,-365 1558,-627 2386,-862 111,-31 437,-77 494,-154 -25,-626 213,-835 492,-1115 -1268,363 -3879,1688 -4242,2531z"/>
  <path class="fil7" d="M12139 21048c482,-471 876,-258 653,185 -269,537 -393,300 -265,738 77,265 66,202 -22,251 -77,-114 -313,-976 -366,-1174zm-678 593c136,91 242,180 367,281 109,88 283,193 363,294 192,105 378,326 561,423l127 -527c0,-113 33,-211 50,-317l200 -999c-73,-49 -132,-111 -192,-182l-183 -216c-131,-14 -354,110 -482,165 -144,62 -334,113 -415,210 -102,122 -432,619 -497,777l101 91z"/>
  <path class="fil8" d="M16976 15627l0 24c1211,0 2606,-103 3805,93 462,76 1116,174 1116,682l0 124c0,724 -1205,1544 -1593,1194 -264,-238 166,-1065 269,-1218 -152,40 -668,716 -572,1220 62,328 205,328 422,328 687,0 2536,-1429 1564,-2163 -170,-128 -385,-189 -624,-250 -682,-171 -1406,-159 -2139,-159l-1691 81c-160,22 -365,44 -557,44z"/>
  <path class="fil8" d="M16610 15102c-125,66 -862,-15 -1093,17 13,-2 1075,106 1109,116 264,-32 908,63 1310,2l1263 -85c853,-96 1403,-242 2177,-521 279,-101 647,-289 865,-484 408,-364 1165,-804 1619,-1079 95,-57 813,-424 860,-488 -124,10 -378,109 -496,153 -793,294 -1685,807 -2333,1339 -216,179 -347,278 -629,395 -1022,426 -2215,548 -3387,610 -209,11 -1173,80 -1265,25z"/>
  <path class="fil1" d="M6363 15762c-380,338 -410,267 -783,783 -73,100 -143,220 -220,309 -95,163 -357,661 -346,895 27,371 341,257 593,172 -75,-557 67,-685 494,-1229 342,-435 409,-480 1060,-716 183,-212 143,-514 -200,-477 -249,27 -416,174 -598,263z"/>
  <path class="fil4" d="M14211 6786c-133,724 -983,1200 -1876,1118 -774,-71 -1633,-640 -1465,-1506 137,-710 988,-1189 1882,-1099 764,76 1614,640 1459,1487zm-7366 1472c130,-20 91,-28 188,-103 363,-843 2974,-2168 4242,-2531 -279,280 -517,489 -492,1115 60,180 43,233 147,423 78,142 162,233 245,329l45 45c170,111 299,244 510,301 292,94 510,152 850,147 398,-5 528,-101 849,-179 549,-227 1005,-827 856,-1450 -27,-111 -73,-168 -82,-268 -36,0 -25,8 -25,-32 -83,-80 -14,-27 0,-47l1025 -4c-23,-24 -50,-44 -75,-63 -285,-54 -716,-11 -1025,-2 -96,-82 -137,-161 -231,-245 -93,-82 -153,-131 -275,-200 -193,-108 -409,-193 -658,-250l281 -20c-370,3 -792,-39 -1140,40l-896 277c-627,203 -1104,415 -1663,685 -714,345 -2493,1339 -2676,2032z"/>
  <path class="fil4" d="M13537 13712c389,-94 632,-465 833,-708 99,-220 353,-546 274,-865 -119,-481 -904,185 -1215,816 -103,210 -321,793 108,757z"/>
  <path class="fil1" d="M16477 14335l-298 34 322 35c388,-6 657,-35 977,-99 617,-122 1133,-264 1707,-490 344,-136 389,-379 239,-711 -228,-506 -815,-1044 -1299,-749 -170,104 -1040,910 325,1024 -60,-52 -57,-36 -163,-61 -152,-37 -369,-105 -430,-248 -115,-270 418,-855 1024,-272 105,100 369,379 340,575 -71,477 -1464,755 -1942,834 -252,41 -540,77 -802,128z"/>
  <path class="fil9" d="M14553 3826l508 -686c-231,-607 33,-470 -214,-644 -168,-118 -350,-280 -519,-378 -4,4 -10,5 -12,13 -1,8 -10,10 -12,13l-73 150c-116,353 -103,910 8,1260 58,182 102,270 314,272z"/>
  <path class="fil1" d="M13107 17899c-168,811 -723,1354 -1542,1507 -9,0 -77,3 -86,4l-121 41 186 62c4,2 13,5 19,9 -126,158 -187,327 -46,487 227,20 482,-231 633,-318l359 -315c91,-93 232,-259 345,-345l385 -497c153,-234 240,-371 240,-660 -163,-109 -197,-75 -372,25z"/>
  <path class="fil0" d="M11730 7837c-2,106 -21,101 -25,223 -3,115 -8,143 -20,229 -24,165 -50,282 -80,430 481,-130 1004,-300 1549,-246 59,-119 102,-155 161,-302 26,-66 43,-106 59,-166 21,-76 28,-137 55,-200 -321,78 -451,174 -849,179 -340,5 -558,-53 -850,-147z"/>
  <path class="fil4" d="M15102 13574l510 -199c231,-94 299,4 450,72l40 -18c38,7 26,27 40,-25 105,-203 267,-399 305,-679 56,-416 -253,-396 -511,-235 -287,178 -717,648 -834,1084z"/>
  <path class="fil4" d="M14001 9864c259,80 554,248 760,386l664 504c-80,-252 -363,-645 -501,-818 -108,-135 -551,-568 -746,-604 -46,70 -46,190 -73,277 -32,101 -69,163 -104,255z"/>
  <path class="fil4" d="M16626 10655c-244,83 -423,174 -639,292 251,19 482,-41 739,31 111,16 249,50 347,81 265,85 375,235 500,-105 31,-86 95,-256 103,-347 -250,-120 -844,-42 -1050,48z"/>
  <path class="fil9" d="M14413 2000c99,88 172,145 279,228 79,61 226,190 311,231 133,-160 118,-265 413,-202 -36,-344 -11,-643 -354,-602 -245,30 -508,227 -649,345z"/>
  <path class="fil10" d="M12612 5608c257,-1 689,190 816,331 151,71 444,419 512,649l-515 73 -63 -157c-23,-40 -11,-21 -30,-45 -61,-76 -110,-99 -160,-170 -236,-131 -293,-173 -616,-240 -391,-43 -385,12 -697,64l-192 -373c272,-83 642,-222 945,-132zm-1007 95c7,157 159,359 223,482 36,1 939,-301 1397,277 -105,72 -328,88 -477,119 -287,61 -532,49 -400,187 73,75 125,-14 211,-51l721 -207c27,68 57,155 124,216 128,1 496,-57 597,-92 43,-318 -529,-810 -876,-967 -436,-198 -1131,-198 -1520,36z"/>
  <path class="fil9" d="M14814 4273c-68,377 161,354 441,267 204,-63 415,-142 590,-231l-1 -463c-454,451 -605,236 -1030,427z"/>
  <path class="fil9" d="M15128 3217c-67,66 -378,516 -416,608 257,-17 560,-90 753,-198 292,-164 254,-288 113,-584 -180,195 -127,268 -450,174z"/>
  <path class="fil11" d="M12556 6049l56 -441c-303,-90 -673,49 -945,132l192 373c312,-52 306,-107 697,-64z"/>
  <path class="fil12" d="M12556 6049c323,67 380,109 616,240 72,-134 195,-217 256,-350 -127,-141 -559,-332 -816,-331l-56 441z"/>
  <path class="fil13" d="M13172 6289c50,71 99,94 160,170 19,24 7,5 30,45l63 157 515 -73c-68,-230 -361,-578 -512,-649 -61,133 -184,216 -256,350z"/>
  <path class="fil0" d="M15772 4870c330,23 886,126 1200,87 -60,-210 -1053,-380 -1199,-391l-1 304z"/>
  <path class="fil10" d="M12438 21597c-78,-73 -152,-438 -167,-539 71,-40 517,-406 517,-39 0,234 -261,484 -350,578zm-299 -549c53,198 289,1060 366,1174 88,-49 99,14 22,-251 -128,-438 -4,-201 265,-738 223,-443 -171,-656 -653,-185z"/>
  <path class="fil7" d="M12438 21597c89,-94 350,-344 350,-578 0,-367 -446,-1 -517,39 15,101 89,466 167,539z"/>
  <path class="fil13" d="M11698 17716c24,336 212,446 525,573 -62,-38 -114,-89 -177,-127 58,-119 277,-299 392,-532l-740 86z"/>
  <path class="fil9" d="M14155 1541c56,368 243,88 421,23 130,-48 276,-48 420,-71 -24,-113 -23,-176 -130,-214 -341,-122 -559,159 -711,262z"/>
  <path class="fil0" d="M13129 577c384,107 491,130 924,80 58,-60 31,-16 50,-89 -263,-139 -781,-237 -1024,-75 18,74 -4,32 50,84z"/>
  <path class="fil14" d="M12730 13881c-189,93 -416,125 -620,242 235,-41 378,-117 789,-174 310,-42 629,-60 947,-61 -20,-137 39,-53 -64,-84l-382 8 -670 69z"/>
  <path class="fil15" d="M7078 19769c66,-17 40,-6 53,-36 -721,-848 -520,-1277 -637,-1638 -32,541 78,1130 441,1527 65,71 91,79 143,147z"/>
  <path class="fil16" d="M11482 19367c21,22 -38,38 83,39 819,-153 1374,-696 1542,-1507l-28 5c-60,66 -176,417 -237,533 -98,183 -203,329 -316,457 -197,222 -622,430 -1044,473z"/>
  <path class="fil14" d="M11605 8719l-25 79c218,-43 454,-135 702,-184 290,-57 527,-61 822,-79l50 -62c-545,-54 -1068,116 -1549,246z"/>
  <path class="fil17" d="M8112 19314l9 -45c-382,-75 -611,-313 -866,-493 -416,-292 -335,-599 -412,-933 -35,515 118,752 376,996 178,168 582,416 893,475z"/>
  <path class="fil15" d="M15022 12049c-61,139 -149,288 -229,422 -77,129 -207,272 -263,389l-49 143c239,-225 486,-655 656,-1038l-115 84z"/>
  <path class="fil18" d="M15716 3183c-5,-287 -72,-631 -144,-912 -12,-50 -20,-94 -33,-138 -29,-107 -37,-96 -69,-130 12,535 71,292 135,585 50,231 -38,296 18,455 33,93 57,106 93,140z"/>
  <path class="fil16" d="M10705 18799c-92,-73 -90,-83 -169,-172 11,214 160,290 370,320 -56,-52 -124,-87 -201,-148z"/>
  <polygon class="fil8" points="24720,12580 24745,12580 24724,12551 "/>
 </g>
</svg>
