<?xml version="1.0" encoding="UTF-8"?>
<!DOCTYPE svg PUBLIC "-//W3C//DTD SVG 1.1//EN" "http://www.w3.org/Graphics/SVG/1.1/DTD/svg11.dtd">
<!-- Creator: CorelDRAW X7 -->
<svg xmlns="http://www.w3.org/2000/svg" xml:space="preserve" width="285mm" height="280mm" version="1.1" style="shape-rendering:geometricPrecision; text-rendering:geometricPrecision; image-rendering:optimizeQuality; fill-rule:evenodd; clip-rule:evenodd"
viewBox="0 0 28500 28000"
 xmlns:xlink="http://www.w3.org/1999/xlink">
 <defs>
  <style type="text/css">
   <![CDATA[
    .str0 {stroke:#241F02;stroke-width:7.62}
    .str1 {stroke:red;stroke-width:7.62}
    .fil2 {fill:black}
    .fil6 {fill:#020202}
    .fil19 {fill:#040404}
    .fil16 {fill:#050401}
    .fil10 {fill:#0505C9}
    .fil20 {fill:#060505}
    .fil28 {fill:#060606}
    .fil23 {fill:#090909}
    .fil29 {fill:#0C0B02}
    .fil18 {fill:#0C0B0B}
    .fil27 {fill:#120E07}
    .fil17 {fill:#141313}
    .fil30 {fill:#161515}
    .fil24 {fill:#1D1A1A}
    .fil12 {fill:#241F02}
    .fil8 {fill:#292402}
    .fil21 {fill:#2A2626}
    .fil5 {fill:#514A4A}
    .fil4 {fill:#D6D5D6}
    .fil0 {fill:#D7D5D6}
    .fil25 {fill:#ECECEC}
    .fil26 {fill:whitesmoke}
    .fil14 {fill:#F7F7F7}
    .fil15 {fill:#F8F6EB}
    .fil13 {fill:#F9F9F9}
    .fil11 {fill:#FC6167}
    .fil7 {fill:#FCDC0E}
    .fil22 {fill:#FDFDFD}
    .fil9 {fill:#FEF7D4}
    .fil3 {fill:#FEFEFE}
    .fil1 {fill:red}
   ]]>
  </style>
 </defs>
 <g id="Layer_x0020_1">
  <metadata id="CorelCorpID_0Corel-Layer"/>
  <path class="fil0" d="M10011 24140c-124,0 -254,34 -371,57 -887,173 -1568,319 -2389,734 -286,144 -865,543 -688,1030 341,943 2894,1371 3837,1508 2558,372 7466,261 9405,-901 1191,-714 561,-1363 -446,-1812 -626,-279 -1740,-532 -2486,-637 -125,-17 -283,-51 -397,-54 62,274 363,843 489,1112 268,566 235,735 -340,934 -783,271 -1797,474 -2695,491 -1334,25 -2181,-258 -3244,-767 -184,-88 -171,-176 -294,-506 -141,-379 -273,-791 -381,-1189z"/>
  <path class="fil1" d="M15496 16791c111,-185 294,-363 352,-627 -1662,397 -4089,226 -5466,-845 -239,-186 -1018,-978 -1343,-879 -55,251 34,321 114,493 -145,-92 -262,-360 -125,-576 81,-129 301,-298 494,-327 -201,128 -263,125 -420,298 53,37 157,42 222,50 1233,151 2843,232 4034,109 470,-49 1414,-261 1825,-419 286,-109 530,-276 665,-459 88,-118 145,-207 209,-342 78,-167 73,-291 126,-435 97,842 -933,1117 -718,2126 78,365 466,561 550,899 97,387 -267,707 -519,934zm-3000 -5535c-52,-96 -117,-171 -183,-265 -64,-92 -102,-159 -163,-261 -104,-175 -194,-359 -290,-559 -159,-332 -344,-925 -384,-1338 -48,-511 70,-1114 358,-1359 374,-318 916,-187 1343,7 674,307 1440,1095 1811,1635 886,1291 859,2209 981,2463l278 71c-704,-20 -1106,-92 -1795,114 -356,106 -705,289 -929,569 -63,79 -116,225 -205,267 -80,-119 -14,-170 35,-294 -142,-144 -612,-702 -708,-871 -950,-17 -1694,47 -2536,432 -236,108 -540,300 -630,340 227,-219 761,-520 1129,-665 422,-167 1015,-248 1509,-272 -333,-216 -1236,-204 -1695,-240 204,-80 882,-75 1131,-55 466,38 589,145 943,281zm5577 7148c-226,28 -518,137 -761,191 -316,72 -551,83 -872,25 -53,-328 -55,-700 -104,-1039 -44,-307 -137,-674 -161,-973l145 -14c135,-38 306,-18 451,-18 136,-311 267,-668 391,-1003 93,-249 282,-821 424,-1025 -95,-335 -165,-779 -238,-1124 -76,-362 -176,-752 -270,-1102 -565,-2088 -1216,-4050 -3074,-5169 -1242,-748 -2847,-1024 -4522,-734 -977,169 -2536,914 -3206,1591 -136,137 -208,230 -352,344l90 730c179,-119 342,-415 872,-714 982,-553 1583,486 941,1390 -377,531 -624,620 -798,823 75,73 133,86 241,230 70,95 115,199 145,329 139,609 -247,906 -759,1093 -258,94 -738,131 -797,225 -3,5 -27,45 -29,51 -64,140 3,173 84,283 291,395 873,1239 1111,1635 109,180 356,532 419,712 155,-36 375,-219 463,-229 196,-22 530,363 466,913 -43,374 -119,210 -298,401 188,526 593,1097 909,2088 127,397 219,774 309,1190 46,212 170,1226 204,1297 259,134 1288,328 1650,394 556,101 1273,215 1849,221l647 -772c114,-131 107,-110 325,-150 531,-96 1069,-194 1599,-299 340,-67 402,27 674,180 964,542 736,556 1270,365 242,-87 482,-223 686,-290l-124 -2046z"/>
  <path class="fil2" d="M9532 21975l770 192c754,166 1829,305 2592,364 354,27 299,-49 643,322 227,245 696,793 885,1062 66,94 134,193 205,296 235,342 204,387 452,165 98,-87 122,-106 199,-200l747 -876c366,-463 528,-720 848,-1175 96,-136 530,-261 826,-398 192,-90 383,-220 554,-287 40,1003 39,2481 -54,3502 -47,513 0,596 -403,803 -1027,527 -2629,839 -3950,860 -1259,19 -3128,-182 -3952,-835l-674 -524c-91,-131 87,-847 119,-1041 121,-738 185,-1463 193,-2230zm5363 2414c-175,-214 -310,-461 -479,-667 -363,-444 -660,-861 -1086,-1236l-478 -397c-79,-51 -123,-58 -181,-119l1040 -1234c96,-128 121,-111 306,-143 256,-43 521,-96 778,-145 253,-49 503,-91 760,-143 278,-55 252,-52 672,184 320,179 903,482 1105,701 -157,279 -362,589 -538,856 -182,277 -385,578 -584,839 -288,377 -538,647 -786,962 -77,99 -438,514 -529,542zm3070 -6536c31,187 36,208 -192,190l-4 -175 196 -15zm-9065 2240c204,-29 -83,-71 147,-72 42,-1 120,40 159,51l19 44c57,156 171,525 142,644 -2,9 -10,12 -13,14l-71 81c-31,57 -27,98 -23,161 -39,166 -26,583 6,735 229,213 165,304 141,792 -26,558 -90,1223 -189,1767 -51,283 -135,544 -140,836 -526,60 -1020,75 -1552,21 -333,-34 -1078,-153 -1326,-300l1070 -3351c-1,-137 0,-258 41,-385 44,-138 114,-180 143,-263l267 -756c3,-6 8,-15 11,-20 3,-5 7,-14 12,-20 41,-10 119,-49 160,-53 234,-22 -20,42 176,71 48,-14 57,43 -1,-197 -215,-894 -652,-1469 -1342,-2029l-706 -509c911,-464 699,-495 1020,-230 596,493 1065,1051 1413,1785 89,186 165,363 235,564 35,104 143,574 201,619zm-1949 -3242c93,-22 421,-218 523,-276 83,-48 164,-102 251,-149 85,-45 172,-98 250,-150 25,106 137,299 192,408 438,877 886,2023 1054,2991 16,90 21,206 53,272l-349 -75c-7,-279 -364,-1069 -530,-1343 -250,-414 -310,-515 -651,-898 -226,-255 -362,-396 -635,-613 -187,-149 -106,-68 -158,-167zm10964 -158c-6,152 8,53 -115,133 51,444 125,41 145,282l-161 23 -71 -388 202 -50zm-14686 -17c0,-160 51,-447 100,-550 145,34 998,566 1249,625 -4,4 -12,3 -14,11 -2,7 -12,8 -15,10l-138 87c-181,99 -378,226 -564,260 -379,70 -618,-45 -618,-443zm136 -664c25,-151 159,-611 239,-702 315,157 616,323 961,481l980 431c-137,98 -376,220 -539,308 -302,162 -213,204 -533,51l-1108 -569zm2287 -3232l55 -45 315 425c404,607 990,1402 1329,2042 -141,95 -1622,924 -1674,924 -79,0 -1134,-466 -1299,-549 -83,-42 -166,-83 -250,-125 -62,-31 -474,-232 -474,-274 0,-172 567,-1476 624,-1724 105,51 435,43 601,51 57,3 99,11 124,11 265,0 775,-20 836,-301 39,-180 -118,-305 -187,-435zm305 -1307c-192,80 -267,153 -520,194 -513,83 -1221,-39 -1385,-632 -109,-394 14,-401 186,-468 877,-340 1957,-362 2765,138 228,141 465,604 255,983 -319,573 -1492,633 -2089,649 160,57 389,57 581,68 -49,199 -128,248 -237,361 -131,136 -224,146 -371,239 195,-28 253,-129 390,-150 128,129 342,364 43,472 -341,124 -1016,63 -1352,9 -450,-71 -957,-220 -1356,-369 -1330,-495 -751,-853 -388,-866 198,-7 204,23 316,114 111,89 389,252 573,255 -109,-25 -374,-171 -468,-235 -339,-233 -685,-906 -443,-1451 76,108 56,196 273,472 76,97 287,250 427,323 440,228 781,184 1039,-149 72,32 119,70 180,127 -90,116 -310,178 -315,603 57,-192 113,-379 243,-478 185,-142 288,-14 540,32 305,55 627,53 909,-82 86,-41 157,-83 204,-159zm-1491 -1229c-302,-376 -294,-254 -328,-518 -85,-648 -8,-1638 441,-2089 82,-83 135,-138 266,-182 930,-313 1053,1332 1058,1913l459 -473c56,-60 97,-82 162,-138 187,-159 477,-384 791,-430 692,-101 1160,954 -207,2038 -260,207 -191,202 -365,127 -748,-322 -1823,-288 -2521,30 -174,-144 -272,-371 -600,-386 106,52 233,89 318,161 77,64 164,164 206,254 -85,48 -126,59 -177,118 -13,146 -7,277 36,411 42,129 136,237 153,327 -88,131 -307,285 -554,282 -231,-3 -422,-138 -568,-239 -343,-237 -616,-626 -579,-1039 33,-354 519,-694 947,-687 402,6 913,307 1062,520zm-488 -985c0,166 19,365 50,500 -87,-21 -187,-71 -279,-96 -493,-132 -998,3 -1285,430 -198,295 -114,394 -98,553 10,93 -13,81 -51,171 -114,273 -79,558 22,808 45,112 147,280 168,356 -432,0 -830,393 -404,729 200,157 836,452 1053,470 -58,248 -145,441 -214,685 -58,205 -195,525 -210,713 -78,-20 -90,-51 -151,-99 -1623,-1291 -1948,-3310 -393,-4864 69,-69 119,-118 187,-187 80,-81 131,-114 213,-187 217,-194 702,-499 968,-631 124,-62 424,-221 549,-250 -63,271 -125,564 -125,899zm13608 5289l289 1850 15 201 -256 76 109 531 199 -20 48 355c-111,-13 -15,-32 -131,-62l-17 132c-5,-3 -12,-9 -16,-11 -3,-2 -11,-8 -16,-11 -6,-4 -116,-84 -216,11 34,21 -5,9 53,18 63,9 -25,1 45,3 24,1 88,-6 114,-7 -23,67 -11,33 -42,79 -35,53 -84,106 -146,129 41,109 66,34 64,115 -101,-8 -4,2 -64,-22 -6,-3 -15,-7 -20,-9 -6,-3 -18,-1 -22,-10 -4,-11 -15,-8 -25,-10l16 60c-49,47 -58,69 -142,39 -6,-2 -48,-33 -54,-38l-53 -48c17,-118 -42,-56 50,-99 -178,-24 40,-19 -164,-61 0,0 -58,-46 -16,70 21,55 54,24 78,116 4,12 9,81 11,99 89,46 35,-16 91,71 132,-38 -25,-5 100,-68l100 78c4,3 10,7 15,10l29 22c57,38 81,46 177,33l28 159c72,-31 -4,-28 132,-44 4,-1 12,-1 16,-1l49 -13c8,-3 -6,-11 49,-23l10 156 124 2046c-204,67 -444,203 -686,290 -534,191 -306,177 -1270,-365 -272,-153 -334,-247 -674,-180 -530,105 -1068,203 -1599,299 -218,40 -211,19 -325,150l-647 772c-576,-6 -1293,-120 -1849,-221 -362,-66 -1391,-260 -1650,-394 -34,-71 -158,-1085 -204,-1297 -90,-416 -182,-793 -309,-1190 -316,-991 -721,-1562 -909,-2088 179,-191 255,-27 298,-401 64,-550 -270,-935 -466,-913 -88,10 -308,193 -463,229 -63,-180 -310,-532 -419,-712 -238,-396 -820,-1240 -1111,-1635 -81,-110 -148,-143 -84,-283 2,-6 26,-46 29,-51 59,-94 539,-131 797,-225 512,-187 898,-484 759,-1093 -30,-130 -75,-234 -145,-329 -108,-144 -166,-157 -241,-230 174,-203 421,-292 798,-823 642,-904 41,-1943 -941,-1390 -530,299 -693,595 -872,714l-90 -730c144,-114 216,-207 352,-344 670,-677 2229,-1422 3206,-1591 1675,-290 3280,-14 4522,734 1858,1119 2509,3081 3074,5169 94,350 194,740 270,1102 73,345 143,789 238,1124zm-11659 -6313l-50 0c-5,-201 -139,-366 -150,-499 210,-49 626,-253 725,-400l299 125c-19,71 -365,329 -424,375 -83,63 -123,114 -215,185 -76,59 -159,117 -185,214zm-3472 7161c-308,-156 -932,-806 -1167,-1100 -808,-1013 -1179,-2615 -698,-3854 489,-1259 1688,-2094 2846,-2600l1318 -483c-73,64 -164,113 -228,175 -385,372 -242,624 -477,722 -736,303 -1377,694 -1910,1237 -898,913 -1377,2137 -869,3472 166,435 361,687 590,985 113,147 272,272 394,404 76,82 322,282 429,345l-228 697zm3300 -7779c51,-122 136,-207 187,-391 42,-151 54,-326 90,-485l307 458c47,63 10,1 41,62 -81,134 -406,301 -625,356zm789 -1874c30,-33 6,-14 59,-52 11,-8 33,-21 48,-29l358 -141c186,-51 388,-79 592,-90 152,105 336,331 424,532 124,281 250,453 16,640 -258,207 -786,570 -1159,699 -378,27 -503,-194 -653,-443 -60,-99 -164,-246 -137,-380 62,-314 113,-322 235,-332l35 139c26,253 -78,280 65,323 60,-78 3,-101 -23,-223 -19,-90 -30,-160 -28,-260l211 45c-28,-147 -154,-186 -192,-318 63,-52 70,-83 149,-110zm-722 -250l-12 155 92 -90c668,-592 1247,-1015 2469,-1127 553,-51 1181,-45 1726,39 241,37 506,91 722,172 147,55 575,211 433,422 -80,77 -84,145 -269,260 -775,483 -2001,-65 -3358,8 -2079,113 -1446,1639 -1991,2276 -168,-121 -11,-52 -358,-270 201,-30 318,-117 270,-351 -233,-255 -600,169 -293,340l-325 -14c-142,-268 -48,-1045 -16,-1359 136,-1302 634,-2848 1310,-3916 474,-748 1316,-1372 2196,-1553 209,-43 462,-63 663,2 262,85 304,208 305,381 -185,827 -1756,751 -2220,2912 -48,224 -314,957 -486,1062 -115,70 -203,121 -304,197l-554 454zm11903 8636l475 -1161 -183 37c-143,-55 -499,12 -649,25 -22,-266 -339,-1325 -416,-1582 -117,-393 -220,-748 -373,-1126 -144,-359 -291,-712 -477,-1046 -474,-851 -1104,-1589 -1916,-2130 -204,-135 -419,-265 -644,-356 -516,-208 -984,-385 -1545,-478 -869,-145 -1850,-149 -2733,40l-584 165c-74,21 -132,53 -205,70 -153,-103 -154,-86 -186,-264 -76,-425 -285,-581 -489,-885 619,0 1156,59 1732,143 562,81 1318,123 1735,-323 234,-250 187,-406 -95,-568 -402,-230 -1008,-334 -1499,-374 -104,-8 -220,4 -324,-1 -116,-6 -157,-32 -300,-27 -126,5 -138,26 -273,28 -464,5 -938,61 -1378,195 -155,48 -319,143 -472,178 493,-930 331,-1621 1093,-2378 461,-458 961,-694 1287,-1036 140,-147 315,-400 220,-608 -134,-295 -679,-364 -1112,-284 -241,45 -457,110 -664,211 -64,31 -139,56 -205,94 -258,151 -469,269 -688,461 -785,685 -1162,1580 -1514,2582 -29,80 -43,133 -66,209 -24,82 -50,136 -78,221 -115,347 -309,1017 -344,1404 -42,465 -104,892 -103,1373 0,136 23,165 26,273 -428,206 -914,327 -1360,514 -561,236 -1011,497 -1477,846l-517 432c-378,361 -770,915 -946,1401 -418,1155 -194,2680 528,3700 130,183 258,373 418,531 44,43 73,68 110,114 131,164 311,318 475,450 54,44 73,65 135,114 65,51 227,168 261,214 -78,334 -216,593 -226,948l-1 527c6,64 0,134 1,199 8,327 111,674 270,929 512,822 1558,254 2238,-72 362,-174 692,-354 1040,-533 182,-94 218,-70 389,35 47,29 75,49 121,80 475,316 893,682 1228,1144 186,256 478,805 485,1113 -297,7 -353,178 -428,422 -66,218 -131,435 -252,622 -146,227 -81,441 -166,683l-789 2457c-77,237 -238,628 -238,861 314,210 993,280 1388,335 265,37 516,39 810,39 276,0 555,-50 824,-50 21,90 9,64 67,109 653,504 922,774 1817,1030 413,118 814,180 1281,242 507,68 1238,133 1785,71 119,-13 244,6 364,-10 862,-118 1001,-90 1966,-333 478,-120 1252,-356 1639,-634 166,-118 271,-216 274,-500 3,-319 66,-725 76,-1048 4,-126 -9,-241 9,-365 46,-301 39,-1840 -6,-2236 -45,-387 184,-559 35,-985 -49,-139 -83,-100 -90,-285l-113 -1784c-54,-364 -63,-712 -87,-1062 -37,-557 -112,-1138 -206,-1692 -90,-534 -175,-1127 -292,-1630 49,-24 31,-23 107,-25z"/>
  <path class="fil1" d="M9532 21975c-8,767 -72,1492 -193,2230 -32,194 -210,910 -119,1041l674 524c824,653 2693,854 3952,835 1321,-21 2923,-333 3950,-860 403,-207 356,-290 403,-803 93,-1021 94,-2499 54,-3502 -171,67 -362,197 -554,287 -296,137 -730,262 -826,398 -320,455 -482,712 -848,1175l-747 876c-77,94 -101,113 -199,200 -248,222 -217,177 -452,-165 -71,-103 -139,-202 -205,-296 -189,-269 -658,-817 -885,-1062 -344,-371 -289,-295 -643,-322 -763,-59 -1838,-198 -2592,-364l-770 -192z"/>
  <path class="fil3" d="M23756 6762c29,-88 310,-552 362,-613l517 488c-23,77 -322,572 -373,613 -62,-38 -467,-441 -506,-488zm-643 -649c9,-19 -50,-33 74,-55 122,-21 106,37 224,114l35 22c-108,31 -67,58 -121,155l-195 11c-36,-39 -75,-65 -83,-128 -3,-19 1,-59 9,-75 46,-96 -4,-26 57,-44zm2036 2778l2 12 17 48c3,19 0,36 -3,62 -12,147 5,9 23,105 11,62 -91,158 -111,246 -7,4 -18,-1 -21,8 -16,59 -16,4 -32,20 -44,42 -8,-44 -23,38l-358 583c-76,-28 -416,-372 -503,-438 -106,-68 -61,4 -127,-109 -19,-68 -246,-251 -309,-295 88,-324 118,-98 185,-164 42,-41 20,-60 -101,-163 -69,66 -104,206 -158,104 -57,-106 104,-100 40,-245 -59,22 -68,31 -119,120 -48,85 -33,102 -117,101l-60 -54c-4,-3 -11,-7 -14,-9 -3,-2 -10,-6 -13,-8 -57,-31 28,7 -33,-12 -4,-2 -18,-5 -26,-6l-50 -101c-6,-82 -348,-350 -410,-389 35,-204 291,-445 318,-621 73,-40 72,10 167,-88 -15,-68 -68,-16 -34,-124 55,-173 55,-61 134,-26 21,-10 20,-6 42,-37 88,-127 16,-116 6,-159 -11,-47 -60,-62 39,-62 99,0 -38,46 88,16 33,-155 -117,-67 0,-206 233,107 69,149 146,278 78,-39 79,-77 119,-137 -28,-114 -74,-38 -19,-184l149 141c-18,63 -146,223 -9,205 3,0 11,-2 14,-3l57 -2c111,5 35,-8 111,-41l108 116c77,-32 27,-24 56,-37 36,-16 141,10 157,-35 9,-24 82,47 122,79l36 -7c7,-3 31,-13 36,-12 112,6 12,76 136,-29 174,170 200,140 193,275l11 38c2,3 7,2 8,5 1,3 7,4 8,4l283 -3 83 -150 -135 -145c-94,74 -30,43 -82,44 -130,4 74,-20 -39,-3 -3,0 -11,2 -13,2 -3,1 -10,5 -13,6 -62,21 -17,39 -63,20 -86,-34 23,-49 -30,-183 -117,-16 -14,7 -83,29 -82,26 -52,0 -57,-45 -9,-67 61,-72 -22,-112 -92,-45 22,27 -111,27 -78,-131 59,-63 -27,-173 -74,-93 -119,-37 -79,-174 119,32 12,-4 80,47 73,52 -8,22 93,60l63 -65c-32,-113 -75,-209 -90,-361 -34,-359 123,-140 -331,-617 -81,-85 -165,-144 -245,-229 -319,-338 -1075,-1199 -1466,-1382 -300,-141 -518,50 -637,222 -157,228 200,427 54,702 -81,155 -266,519 -348,621l-372 20c-178,241 -315,781 -260,1046 57,275 325,473 586,739 443,451 871,881 1324,1322 58,57 113,102 164,161 188,215 1440,1415 1525,1449 74,30 422,-79 543,-98 506,-79 722,8 1014,234 138,-137 495,-951 589,-1232 45,-133 -10,-150 -71,-231 -133,-176 -162,-325 -166,-580 -22,-88 -102,-34 -240,-113 -269,-152 -472,-479 -537,-533l-154 250c-65,-21 -99,-77 -111,2 -16,112 90,64 12,141 -94,91 -65,-111 -125,36 -33,82 74,11 8,170 -109,-46 -128,-109 -230,-186 -118,141 -108,121 -87,194l119 -25c4,-2 11,-7 17,-9 59,82 129,80 78,173 -69,25 -93,-51 -174,-106 -48,146 160,300 -111,173l-4 64z"/>
  <path class="fil3" d="M4466 10244c-149,-213 -660,-514 -1062,-520 -428,-7 -914,333 -947,687 -37,413 236,802 579,1039 146,101 337,236 568,239 247,3 466,-151 554,-282 -17,-90 -111,-198 -153,-327 -43,-134 -49,-265 -36,-411 51,-59 92,-70 177,-118 -42,-90 -129,-190 -206,-254 -85,-72 -212,-109 -318,-161 328,15 426,242 600,386 698,-318 1773,-352 2521,-30 174,75 105,80 365,-127 1367,-1084 899,-2139 207,-2038 -314,46 -604,271 -791,430 -65,56 -106,78 -162,138l-459 473c-5,-581 -128,-2226 -1058,-1913 -131,44 -184,99 -266,182 -449,451 -526,1441 -441,2089 34,264 26,142 328,518z"/>
  <path class="fil4" d="M11252 5064c-60,-71 26,-24 -68,-37 -1,0 -75,12 -80,13 -206,50 -276,68 -505,70 -970,10 -2589,-236 -3603,-2 -591,136 -871,382 -1094,450l-92 90 12 -155c48,-435 362,-1142 515,-1543 493,-1292 607,-1583 1803,-2292 218,-129 442,-238 659,-366 458,-271 438,-329 587,-424 -1,-173 -43,-296 -305,-381 -201,-65 -454,-45 -663,-2 -880,181 -1722,805 -2196,1553 -676,1068 -1174,2614 -1310,3916 -32,314 -126,1091 16,1359l325 14c-307,-171 60,-595 293,-340 48,234 -69,321 -270,351 347,218 190,149 358,270 545,-637 -88,-2163 1991,-2276 1357,-73 2583,475 3358,-8 185,-115 189,-183 269,-260z"/>
  <path class="fil3" d="M5957 11473c-47,76 -118,118 -204,159 -282,135 -604,137 -909,82 -252,-46 -355,-174 -540,-32 -130,99 -186,286 -243,478 5,-425 225,-487 315,-603 -61,-57 -108,-95 -180,-127 -258,333 -599,377 -1039,149 -140,-73 -351,-226 -427,-323 -217,-276 -197,-364 -273,-472 -242,545 104,1218 443,1451 94,64 359,210 468,235 -184,-3 -462,-166 -573,-255 -112,-91 -118,-121 -316,-114 -363,13 -942,371 388,866 399,149 906,298 1356,369 336,54 1011,115 1352,-9 299,-108 85,-343 -43,-472 -137,21 -195,122 -390,150 147,-93 240,-103 371,-239 109,-113 188,-162 237,-361 -192,-11 -421,-11 -581,-68 597,-16 1770,-76 2089,-649 210,-379 -27,-842 -255,-983 -808,-500 -1888,-478 -2765,-138 -172,67 -295,74 -186,468 164,593 872,715 1385,632 253,-41 328,-114 520,-194z"/>
  <path class="fil5" d="M9266 21751c-201,119 -832,105 -1081,60 -382,-70 -600,-197 -915,-295l-1070 3351c248,147 993,266 1326,300 532,54 1026,39 1552,-21 5,-292 89,-553 140,-836 99,-544 163,-1209 189,-1767 24,-488 88,-579 -141,-792z"/>
  <path class="fil3" d="M13421 12207l450 -301c-25,-90 -334,-522 -421,-678 -244,-432 -624,-1122 -506,-1649 60,-266 282,-499 577,-523 741,-58 1400,1071 1670,1630 140,292 183,508 245,854l396 14c-147,-1034 -619,-1993 -1118,-2638 -489,-633 -1440,-1512 -2242,-1545 -598,-25 -816,467 -869,1019 -130,1379 1035,2957 1818,3817z"/>
  <path class="fil2" d="M13421 12207c-783,-860 -1948,-2438 -1818,-3817 53,-552 271,-1044 869,-1019 802,33 1753,912 2242,1545 499,645 971,1604 1118,2638l-396 -14c-62,-346 -105,-562 -245,-854 -270,-559 -929,-1688 -1670,-1630 -295,24 -517,257 -577,523 -118,527 262,1217 506,1649 87,156 396,588 421,678l-450 301zm-925 -951c-354,-136 -477,-243 -943,-281 -249,-20 -927,-25 -1131,55 459,36 1362,24 1695,240 -494,24 -1087,105 -1509,272 -368,145 -902,446 -1129,665 90,-40 394,-232 630,-340 842,-385 1586,-449 2536,-432 96,169 566,727 708,871 -49,124 -115,175 -35,294 89,-42 142,-188 205,-267 224,-280 573,-463 929,-569 689,-206 1091,-134 1795,-114l-278 -71c-122,-254 -95,-1172 -981,-2463 -371,-540 -1137,-1328 -1811,-1635 -427,-194 -969,-325 -1343,-7 -288,245 -406,848 -358,1359 40,413 225,1006 384,1338 96,200 186,384 290,559 61,102 99,169 163,261 66,94 131,169 183,265z"/>
  <path class="fil5" d="M2455 15396l228 -697c-107,-63 -353,-263 -429,-345 -122,-132 -281,-257 -394,-404 -229,-298 -424,-550 -590,-985 -508,-1335 -29,-2559 869,-3472 533,-543 1174,-934 1910,-1237 235,-98 92,-350 477,-722 64,-62 155,-111 228,-175l-1318 483c-1158,506 -2357,1341 -2846,2600 -481,1239 -110,2841 698,3854 235,294 859,944 1167,1100z"/>
  <path class="fil6" d="M26072 12112c79,-153 787,-443 302,-1355 84,-217 388,-682 557,-1177 25,-72 31,-121 79,-176 224,147 408,286 775,229 -74,523 -745,2110 -1237,2436 -174,116 -278,81 -476,43zm727 -3452c74,-96 349,-75 520,-316 139,-195 146,-373 176,-649 633,-20 1054,982 662,1537 -310,438 -859,335 -1210,-60 -106,-119 -144,-303 -148,-512zm-1841 -600c37,-84 86,-178 154,-243 79,51 153,127 213,200l-114 192c-3,4 -9,10 -11,14l-42 41 -200 -204zm1025 -449c264,-150 607,-41 596,-982 833,-11 897,1194 677,1578 -409,715 -1350,-37 -1273,-596zm-474 -70c132,40 188,64 351,72l3 298c-125,77 -17,6 -67,14l-117 17c-53,-12 22,1 -57,-29l-85 147c31,63 56,74 20,166l-153 -145 154 -229 117 3c109,-22 73,18 109,-27 37,-61 -62,-123 -115,-158l-108 146c-73,-38 -92,-58 -137,-132l85 -143zm-6 -1817c528,-93 1210,773 887,1467 -84,181 -273,294 -529,307 -721,36 -1586,-1560 -358,-1774zm-492 1959c-128,33 -15,1 -129,59l-95 -109c-114,36 -51,23 -163,12 -33,57 -60,93 -89,141 -54,87 -59,69 2,145 125,-74 58,-176 206,-226 82,171 -63,57 39,212l130 -156 62 59c-19,42 -56,134 -111,141 -101,14 83,-12 -41,-6 -8,0 -26,-83 -46,32l20 174c16,59 -7,39 50,36 89,-5 -47,-58 100,-21 9,38 23,81 -35,92 -72,13 -69,-109 -91,20 -25,142 97,-29 -40,244l-71 -11c-132,7 10,64 -126,17l-14 -68 84 -23c23,-4 24,66 62,-25 45,-107 -122,-49 -123,-49l-33 4c-5,1 -12,2 -17,2 -173,30 -148,-44 -226,161 12,13 80,85 96,93 89,43 18,-7 133,-31 187,259 192,154 226,147l100 -8c57,-153 -41,4 -18,-130 20,-119 45,-24 102,-32l23 -8c2,-1 9,-5 11,-6l167 -15c3,0 11,-2 16,0 17,43 -2,167 -97,169 -41,0 14,-33 -64,-9 -48,92 48,150 138,181l4 -64c271,127 63,-27 111,-173 81,55 105,131 174,106 51,-93 -19,-91 -78,-173 -6,2 -13,7 -17,9l-119 25c-21,-73 -31,-53 87,-194 102,77 121,140 230,186 66,-159 -41,-88 -8,-170 60,-147 31,55 125,-36 78,-77 -28,-29 -12,-141 12,-79 46,-23 111,-2l154 -250c65,54 268,381 537,533 138,79 218,25 240,113 4,255 33,404 166,580 61,81 116,98 71,231 -94,281 -451,1095 -589,1232 -292,-226 -508,-313 -1014,-234 -121,19 -469,128 -543,98 -85,-34 -1337,-1234 -1525,-1449 -51,-59 -106,-104 -164,-161 -453,-441 -881,-871 -1324,-1322 -261,-266 -529,-464 -586,-739 -55,-265 82,-805 260,-1046l372 -20c82,-102 267,-466 348,-621 146,-275 -211,-474 -54,-702 119,-172 337,-363 637,-222 391,183 1147,1044 1466,1382 80,85 164,144 245,229 454,477 297,258 331,617 15,152 58,248 90,361l-63 65c-101,-38 -20,-8 -93,-60 -68,-51 39,-15 -80,-47 -40,137 5,81 79,174 86,110 -51,42 27,173 133,0 19,-72 111,-27 83,40 13,45 22,112 5,45 -25,71 57,45 69,-22 -34,-45 83,-29 53,134 -56,149 30,183 46,19 1,1 63,-20 3,-1 10,-5 13,-6 2,0 10,-2 13,-2 113,-17 -91,7 39,3 52,-1 -12,30 82,-44l135 145 -83 150 -283 3c-1,0 -7,-1 -8,-4 -1,-3 -6,-2 -8,-5zm-4571 -382c76,-14 1,63 76,-70 -100,-759 217,-1325 548,-2018 269,-563 591,-1332 1254,-1340 388,-61 621,190 815,347l1728 1768c-10,33 -22,84 -34,114 -33,89 -3,34 -45,84 -283,-255 -569,-591 -843,-874 -144,-149 -296,-283 -441,-433 -281,-292 -851,-996 -1308,-538 -255,255 -179,307 -72,595 111,301 -115,361 -318,851l-409 29c-289,708 -469,1029 55,1564 364,371 711,727 1079,1094 368,367 727,709 1104,1068l838 811c88,75 195,165 266,255l-323 109 -524 134c-70,5 -106,4 -175,1 -114,-4 -92,-31 -115,29 362,417 2459,-1072 2799,191 160,597 -291,940 -743,1075 -619,185 -1077,-86 -1642,-148 29,26 -11,0 47,35 273,161 933,267 1226,280 -184,120 -444,198 -704,229 -389,46 -500,-32 -810,-132 411,395 548,35 738,473 232,534 -149,562 -518,370 -704,-367 -1232,-1008 -1383,-1081 -67,34 -427,527 -514,635 -94,117 -166,218 -262,338l-199 255c-55,75 -65,33 -17,54 66,4 -21,31 81,-19l504 -445c122,-94 464,-423 539,-535 215,143 1390,1353 1854,954 240,-207 -30,-649 -55,-755 237,0 550,-96 750,-198 290,-149 -53,-203 446,-98 89,18 205,28 328,22 651,-33 962,-620 1224,-1124 40,-77 73,-148 116,-233 45,-88 62,-131 101,-224 236,-551 254,-526 395,-1129 28,-121 34,-85 121,-128 298,-148 417,-526 417,-858 0,-327 -123,-644 -341,-860 -299,-296 -428,-201 -556,-268 -91,-47 -21,42 -88,-236 -128,-529 -339,-809 -890,-809 -132,-566 -688,-1143 -1406,-806 -97,45 -140,105 -217,157 -514,-344 -1701,-2013 -2405,-2118 -213,-31 -551,38 -757,181 -431,298 -869,1362 -1093,1829 -174,360 -457,1235 -242,1546z"/>
  <path class="fil3" d="M23596 10881c-107,86 -162,191 -254,306 -86,109 -153,200 -238,310 -160,205 -344,422 -487,642l-11 34c151,73 679,714 1383,1081 369,192 750,164 518,-370 -190,-438 -327,-78 -738,-473 310,100 421,178 810,132 260,-31 520,-109 704,-229 -293,-13 -953,-119 -1226,-280 -58,-35 -18,-9 -47,-35 565,62 1023,333 1642,148 452,-135 903,-478 743,-1075 -340,-1263 -2437,226 -2799,-191z"/>
  <path class="fil7" d="M13243 21766c36,9 32,8 49,36 122,199 -268,244 -131,-16 1,-1 -8,-43 82,-20zm1170 -520c350,-244 1887,-734 1908,25 15,544 -964,1007 -1492,1207l16 741 -226 54c14,-1438 -184,-1467 -206,-2027zm2430 166c-112,-40 -103,-99 -58,-193 185,5 166,137 58,193zm-1930 2568c182,-106 970,-1055 1153,-1288 180,-231 347,-467 515,-709 89,-129 168,-250 250,-375 70,-107 185,-256 229,-361 -295,-223 -647,-409 -1021,-596 -259,-130 -262,-195 -578,-139 -229,41 -450,80 -678,121 -231,42 -447,83 -680,120 -207,32 -223,29 -462,338l-569 630c-74,70 -134,129 -187,230 228,67 451,298 605,425l520 503 903 1101z"/>
  <path class="fil2" d="M14061 15677c94,-253 537,-640 1013,-455 324,127 738,437 774,809 -407,181 -1282,219 -1778,221l-593 -32c-111,-27 -189,-408 208,-480 310,-56 450,-16 583,194 -17,-180 -81,-180 -207,-257zm1269 -1124c-958,106 -374,523 -2908,551 -497,5 -1219,-22 -1684,63 -390,71 -206,142 -577,-177 -226,-193 -253,-280 -399,-449l1476 73c508,21 1052,30 1559,9 701,-28 1345,-158 2010,-333 220,-58 424,-140 626,-193l-103 456zm166 2238c252,-227 616,-547 519,-934 -84,-338 -472,-534 -550,-899 -215,-1009 815,-1284 718,-2126 -53,144 -48,268 -126,435 -64,135 -121,224 -209,342 -135,183 -379,350 -665,459 -411,158 -1355,370 -1825,419 -1191,123 -2801,42 -4034,-109 -65,-8 -169,-13 -222,-50 157,-173 219,-170 420,-298 -193,29 -413,198 -494,327 -137,216 -20,484 125,576 -80,-172 -169,-242 -114,-493 325,-99 1104,693 1343,879 1377,1071 3804,1242 5466,845 -58,264 -241,442 -352,627z"/>
  <path class="fil8 str0" d="M20440 7301c85,218 193,358 342,543l1282 1390c-68,142 -125,458 -125,674 -129,-10 -132,-54 -300,-52 -880,11 128,1464 200,1601 -93,139 -456,435 -619,580l-330 269c-474,364 -679,386 -1342,482l-1004 120c-89,27 -24,-33 -77,47 364,0 322,59 541,162l367 190c2,2 9,5 12,6 325,153 156,74 405,240l321 205c70,52 70,0 53,96 248,0 572,-81 797,-127 177,-35 546,-105 651,-272 -48,-21 -38,21 17,-54l199 -255c96,-120 168,-221 262,-338 87,-108 447,-601 514,-635l11 -34c-130,-67 -198,-201 -304,-307 -212,-214 -596,-768 -736,-1062 -455,-953 147,-844 323,-723 140,95 91,414 345,539 -104,-258 -207,-320 -192,-678 8,-207 70,-538 153,-694 0,-1 -1090,-1148 -1324,-1446 -64,-81 -129,-168 -192,-257 -59,-85 -106,-196 -174,-280 -75,133 0,56 -76,70z"/>
  <path class="fil4" d="M24410 10717l323 -109c-71,-90 -178,-180 -266,-255l-838 -811c-377,-359 -736,-701 -1104,-1068 -368,-367 -715,-723 -1079,-1094 -524,-535 -344,-856 -55,-1564l409 -29c203,-490 429,-550 318,-851 -107,-288 -183,-340 72,-595 457,-458 1027,246 1308,538 145,150 297,284 441,433 274,283 560,619 843,874 42,-50 12,5 45,-84 12,-30 24,-81 34,-114l-1728 -1768c-194,-157 -427,-408 -815,-347 -185,93 -274,184 -380,341 -205,305 -594,1140 -758,1489 -220,466 -570,1224 -145,1688 664,726 1854,1885 2600,2595 70,67 121,116 192,183 127,120 413,461 583,548z"/>
  <path class="fil9" d="M22617 12139c143,-220 327,-437 487,-642 85,-110 152,-201 238,-310 92,-115 147,-220 254,-306 23,-60 1,-33 115,-29 69,3 105,4 175,-1l-837 -828c-148,-139 -278,-260 -425,-400 -103,-99 -325,-351 -418,-409 -83,156 -145,487 -153,694 -15,358 88,420 192,678 -254,-125 -205,-444 -345,-539 -176,-121 -778,-230 -323,723 140,294 524,848 736,1062 106,106 174,240 304,307z"/>
  <path class="fil10" d="M20516 7231c68,84 115,195 174,280 63,89 128,176 192,257 234,298 1324,1445 1324,1446 93,58 315,310 418,409 147,140 277,261 425,400l837 828 524 -134c-170,-87 -456,-428 -583,-548 -71,-67 -122,-116 -192,-183 -746,-710 -1936,-1869 -2600,-2595 -425,-464 -75,-1222 145,-1688 164,-349 553,-1184 758,-1489 106,-157 195,-248 380,-341 -663,8 -985,777 -1254,1340 -331,693 -648,1259 -548,2018z"/>
  <path class="fil5" d="M8080 20090c136,106 679,85 820,3 -58,-45 -166,-515 -201,-619 -70,-201 -146,-378 -235,-564 -348,-734 -817,-1292 -1413,-1785 -321,-265 -109,-234 -1020,230l706 509c690,560 1127,1135 1342,2029 58,240 49,183 1,197z"/>
  <path class="fil5" d="M5822 5493l554 -454c101,-76 189,-127 304,-197 172,-105 438,-838 486,-1062 464,-2161 2035,-2085 2220,-2912 -149,95 -129,153 -587,424 -217,128 -441,237 -659,366 -1196,709 -1310,1000 -1803,2292 -153,401 -467,1108 -515,1543z"/>
  <path class="fil3" d="M15433 14097c-202,53 -406,135 -626,193 -665,175 -1309,305 -2010,333 -507,21 -1051,12 -1559,-9l-1476 -73c146,169 173,256 399,449 371,319 187,248 577,177 465,-85 1187,-58 1684,-63 2534,-28 1950,-445 2908,-551l103 -456z"/>
  <path class="fil5" d="M5902 5558c223,-68 503,-314 1094,-450 1014,-234 2633,12 3603,2 229,-2 299,-20 505,-70 5,-1 79,-13 80,-13 94,13 8,-34 68,37 142,-211 -286,-367 -433,-422 -216,-81 -481,-135 -722,-172 -545,-84 -1173,-90 -1726,-39 -1222,112 -1801,535 -2469,1127z"/>
  <path class="fil3" d="M25503 5724c-1228,214 -363,1810 358,1774 256,-13 445,-126 529,-307 323,-694 -359,-1560 -887,-1467z"/>
  <path class="fil7" d="M12823 21974c6,-147 87,-156 172,-254l588 -662c242,-239 178,-311 492,-358l1417 -253c286,-59 376,48 610,166 249,124 912,456 1023,633 -83,307 -1441,2083 -1890,2513 -429,412 -235,407 -816,-289 -160,-192 -304,-373 -469,-555 -321,-354 -697,-704 -1127,-941zm2072 2415c91,-28 452,-443 529,-542 248,-315 498,-585 786,-962 199,-261 402,-562 584,-839 176,-267 381,-577 538,-856 -202,-219 -785,-522 -1105,-701 -420,-236 -394,-239 -672,-184 -257,52 -507,94 -760,143 -257,49 -522,102 -778,145 -185,32 -210,15 -306,143l-1040 1234c58,61 102,68 181,119l478 397c426,375 723,792 1086,1236 169,206 304,453 479,667z"/>
  <path class="fil5" d="M6544 5743c143,108 287,485 359,692 128,366 133,559 -21,867 373,-129 901,-492 1159,-699 234,-187 108,-359 -16,-640 -88,-201 -272,-427 -424,-532 -204,11 -406,39 -592,90l-358 141c-15,8 -37,21 -48,29 -53,38 -29,19 -59,52z"/>
  <path class="fil11" d="M14061 15677c126,77 190,77 207,257 -133,-210 -273,-250 -583,-194 -397,72 -319,453 -208,480l593 32c496,-2 1371,-40 1778,-221 -36,-372 -450,-682 -774,-809 -476,-185 -919,202 -1013,455z"/>
  <path class="fil12 str0" d="M18017 13005l183 -37 -475 1161c378,0 1718,-161 2167,-224 128,-17 240,-13 274,-51 17,-96 17,-44 -53,-96l-321 -205c-249,-166 -80,-87 -405,-240 -3,-1 -10,-4 -12,-6l-367 -190c-219,-103 -177,-162 -541,-162 -98,-38 -132,-31 -240,-16 -5,1 -108,14 -111,14 -91,23 -52,-19 -99,52z"/>
  <path class="fil4" d="M26984 10149c366,-167 550,376 231,514 -340,147 -577,-356 -231,-514zm-912 1963c198,38 302,73 476,-43 492,-326 1163,-1913 1237,-2436 -367,57 -551,-82 -775,-229 -48,55 -54,104 -79,176 -169,495 -473,960 -557,1177 485,912 -223,1202 -302,1355z"/>
  <path class="fil3" d="M25983 7611c-77,559 864,1311 1273,596 220,-384 156,-1589 -677,-1578 11,941 -332,832 -596,982z"/>
  <path class="fil13" d="M24507 8749c206,85 147,138 138,165 -49,27 66,59 -68,10 -140,-50 -71,-175 -70,-175zm-620 -109c-107,-73 -50,-160 57,-210 52,83 19,126 -57,210zm120 -384c74,45 196,105 105,203 -87,-43 -157,-80 -105,-203zm477 9c36,-77 77,-179 153,-228 99,105 25,36 34,123 6,58 96,137 -30,138 -90,1 -28,-35 -104,36 -105,-83 9,-28 -159,-12 -5,1 -13,-1 -17,0 -5,0 -13,1 -17,2l-60 18c-37,8 -84,-41 -29,-87l81 -4c5,-1 12,-3 16,-4 105,-27 -6,-35 132,18zm-124 -77c-31,-60 -49,-114 77,-206 58,54 75,31 23,123 -48,85 -77,76 -100,83zm-690 -284c145,186 125,105 92,209 -163,-71 -172,-132 -92,-209zm92 -400c178,32 86,7 157,3 149,-9 4,19 139,-45 21,35 72,75 18,108l-97 13c-144,21 -154,-20 -210,153 65,84 66,90 145,133 68,-193 -46,-75 -9,-181 32,-91 -35,-1 30,-21 4,-1 12,0 16,-1 4,-1 13,0 18,0l182 -13c56,-103 56,-102 123,-128 57,140 -31,70 16,163 13,27 70,65 113,126 -169,248 -152,183 -118,278 3,8 13,32 14,39 3,12 68,-11 -7,54 -101,88 21,-39 -120,8l-190 22c-76,-3 18,-41 -44,-4 -93,69 -52,161 -175,199 -56,-84 -5,-130 46,-206 117,-175 39,-6 142,-61 81,-44 15,-61 8,-99 -25,-132 36,-150 -58,-143l-68 25c-3,-5 -12,7 -14,3l-84 -91c-6,1 -13,6 -17,8 -3,1 -12,6 -16,7 -4,2 -12,5 -17,6 -79,24 -67,-9 -123,7 -61,18 -19,35 -81,26 -42,-111 10,-96 57,-209 106,54 66,92 136,-7 29,-41 71,-124 88,-172zm-349 -18c-79,-35 -79,-147 -134,26 -34,108 19,56 34,124 -95,98 -94,48 -167,88 138,59 425,370 544,490l-352 569c-57,-19 -33,-4 -100,-49l50 101c8,1 22,4 26,6 61,19 -24,-19 33,12 3,2 10,6 13,8 3,2 10,6 14,9l60 54c-31,-111 28,-150 91,-252 50,-80 84,-174 168,-215 61,92 26,30 21,103 -8,111 29,6 15,165l23 93c59,-30 54,15 108,-144 123,33 21,29 114,26 13,-23 33,-61 51,-79 46,-47 0,-21 62,-38 96,154 -85,39 63,188 61,-61 8,-18 50,-70 70,-87 -1,-42 95,-74 68,155 -69,107 -42,228 25,112 46,-16 138,1 49,113 -8,84 -55,204 -77,-39 -62,-69 -104,-26 -96,99 143,78 -70,271 -106,-70 -54,-16 -47,-96 4,-49 42,27 1,-62 -58,-123 -25,65 -139,1 -39,-23 -59,-58 -118,-98 -54,179 206,223 243,376 -66,87 -5,17 -89,40 66,113 21,41 127,109 37,-116 113,-210 176,-312l134 -216c49,-64 19,-32 69,-64 110,128 345,381 482,447 15,-82 -21,4 23,-38 16,-16 16,39 32,-20 3,-9 14,-4 21,-8 -99,-40 -21,4 -102,-70l-269 -260 77 -158 135 102c-1,6 7,-7 10,-1 33,68 2,-12 65,-23l138 -37c6,-3 13,-10 20,-14l-2 -12c-90,-31 -186,-89 -138,-181 78,-24 23,9 64,9 95,-2 114,-126 97,-169 -5,-2 -13,0 -16,0l-167 15c-2,1 -9,5 -11,6l-23 8c-57,8 -82,-87 -102,32 -23,134 75,-23 18,130l-100 8c-34,7 -39,112 -226,-147 -115,24 -44,74 -133,31 -16,-8 -84,-80 -96,-93 78,-205 53,-131 226,-161 5,0 12,-1 17,-2l33 -4c1,0 168,-58 123,49 -38,91 -39,21 -62,25l-84 23 14 68c136,47 -6,-10 126,-17l71 11c137,-273 15,-102 40,-244 22,-129 19,-7 91,-20 58,-11 44,-54 35,-92 -147,-37 -11,16 -100,21 -57,3 -34,23 -50,-36l-20 -174c20,-115 38,-32 46,-32 124,-6 -60,20 41,6 55,-7 92,-99 111,-141l-62 -59 -130 156c-102,-155 43,-41 -39,-212 -148,50 -81,152 -206,226 -61,-76 -56,-58 -2,-145 29,-48 56,-84 89,-141 112,11 49,24 163,-12l95 109c114,-58 1,-26 129,-59l-11 -38c-102,-16 -106,-16 -151,-118 -86,44 -36,31 -121,67 -61,-88 -108,-61 -93,-183l-36 7c27,114 -18,71 -63,198 -244,-48 -42,50 -210,6 -33,-128 46,-34 16,-165 -115,-45 -15,-12 -129,31l-95 -108c-15,7 -67,34 -71,36 -79,24 -17,1 -49,6l-32 2c-106,23 -19,89 -180,-88 -90,39 -16,37 -80,46 -28,4 -73,-42 -100,16 -30,65 18,55 29,101 22,93 -78,54 -79,54l-29 5c-166,31 -104,-22 -114,-72z"/>
  <path class="fil5" d="M7454 20868c247,34 516,172 832,214 432,58 614,-53 974,-66 -4,-63 -8,-104 23,-161l71 -81c3,-2 11,-5 13,-14 29,-119 -85,-488 -142,-644l-19 -44c-25,99 -20,93 -137,121 -211,49 -1301,138 -1325,-121 -5,6 -9,15 -12,20 -3,5 -8,14 -11,20l-267 756z"/>
  <path class="fil4" d="M7270 21516c315,98 533,225 915,295 249,45 880,59 1081,-60 -32,-152 -45,-569 -6,-735 -360,13 -542,124 -974,66 -316,-42 -585,-180 -832,-214 -29,83 -99,125 -143,263 -41,127 -42,248 -41,385z"/>
  <path class="fil5" d="M3365 16012l1108 569c320,153 231,111 533,-51 163,-88 402,-210 539,-308l-980 -431c-345,-158 -646,-324 -961,-481 -80,91 -214,551 -239,702z"/>
  <path class="fil2" d="M14752 21305c214,-125 429,-238 715,-285 967,-160 536,927 -643,1230l-72 -945zm-339 -59c22,560 220,589 206,2027l226 -54 -16 -741c528,-200 1507,-663 1492,-1207 -21,-759 -1558,-269 -1908,-25z"/>
  <path class="fil1 str1" d="M16320 16594c81,44 255,28 369,28 211,1 424,-9 629,-45 243,-44 358,-117 557,-179l-289 -1850c-142,204 -331,776 -424,1025 -124,335 -255,692 -391,1003 -145,0 -316,-20 -451,18z"/>
  <path class="fil14" d="M17159 18459l-22 -331 131 -9c30,114 39,106 131,172l-64 147c-56,30 -119,31 -176,21zm-624 -461l517 6c35,447 154,584 -477,488l-40 -494zm1033 330l-72 -27c-77,-49 -61,-72 -49,-142l207 65 -86 104zm-920 -674l72 0c-9,-114 -6,-94 23,-135 200,4 69,4 131,46 54,36 20,21 145,27 -22,79 -57,62 -62,122 111,19 58,-14 149,36 -36,48 -7,17 -64,42l-77 33c5,4 14,2 16,11 15,59 36,-31 65,91 -193,12 -117,4 -165,-45 -4,-4 -8,-13 -13,-18l-29 27c-73,54 -56,53 -165,34 34,-139 -3,13 63,-100l-89 -171zm0 0l-69 11c7,132 37,193 -11,264 -74,-45 -69,-185 -71,-348l134 8 17 65zm1425 750l-10 -156c-55,12 -41,20 -49,23l-49 13c-4,0 -12,0 -16,1 -136,16 -60,13 -132,44l-28 -159c-96,13 -120,5 -177,-33l-29 -22c-5,-3 -11,-7 -15,-10l-100 -78c-125,63 32,30 -100,68 -56,-87 -2,-25 -91,-71 -2,-18 -7,-87 -11,-99 -24,-92 -57,-61 -78,-116 -42,-116 16,-70 16,-70 102,-84 69,51 106,-90l-76 -18c20,-67 -28,3 65,-81l-49 -35c-31,-26 -20,-9 -57,-56 -61,76 -22,54 -50,126 -39,-9 -62,-1 -67,-61 -7,-79 17,-29 58,-130l-222 6 -11 -43c24,-79 42,-53 67,-57 -119,0 -163,18 -250,-48 -239,-13 -338,80 -354,-496l109 -13c108,-31 186,-24 270,8 -17,-165 38,-79 -54,-129 -114,0 -288,16 -369,-28l-145 14c24,299 117,666 161,973 49,339 51,711 104,1039 321,58 556,47 872,-25 243,-54 535,-163 761,-191z"/>
  <path class="fil7" d="M14752 21305l72 945c1179,-303 1610,-1390 643,-1230 -286,47 -501,160 -715,285z"/>
  <path class="fil4" d="M6882 7302c154,-308 149,-501 21,-867 -72,-207 -216,-584 -359,-692 -79,27 -86,58 -149,110 38,132 164,171 192,318l-211 -45c-2,100 9,170 28,260 26,122 83,145 23,223 -143,-43 -39,-70 -65,-323l-35 -139c-122,10 -173,18 -235,332 -27,134 77,281 137,380 150,249 275,470 653,443z"/>
  <path class="fil15" d="M17817 17483c-25,1 -28,6 -50,0 -82,-21 -50,-23 -137,-83l50 -63c4,-4 9,-11 12,-16 4,-5 10,-13 13,-17 3,-4 8,-11 12,-17l75 62c62,-77 31,-67 90,-67 -12,154 5,-54 -52,162l-13 39zm-818 -483c105,-53 113,-21 169,46 190,-2 137,-21 197,29 -58,59 14,14 -120,50 -1,121 3,85 -27,128 -71,-49 -17,-32 -58,-94l-161 -159zm344 -185c5,-5 9,-15 12,-20l63 -67c91,124 7,101 -8,230 67,-7 62,3 112,-29l83 -68 10 139c-31,12 -62,15 -85,30l-62 72c-5,-5 -10,-12 -12,-15l-53 -102c-17,-23 -45,-32 -85,-85 -84,34 -21,43 -106,71 -45,-119 -4,-18 -47,-62 -35,-36 -25,-4 -50,-58 93,-42 69,5 135,-69 3,-3 8,-8 9,-17 2,-9 5,-12 9,-18 44,30 13,9 45,36 3,3 12,20 15,16 3,-5 10,11 15,16zm-654 -193c92,50 37,-36 54,129 -84,-32 -162,-39 -270,-8 233,121 374,-108 429,126l60 385 -244 -2c87,66 131,48 250,48 -25,4 -43,-22 -67,57l11 43c-14,-104 -34,-83 105,-87 138,-3 97,13 111,78 8,-3 18,-19 22,-13 9,12 30,-42 122,-63l18 137c16,51 18,43 28,61 77,-54 11,-28 51,-114 33,-71 46,29 24,-159l52 22c70,34 38,47 170,32 -20,142 -55,34 -38,212 -17,1 -90,1 -102,3 -148,21 -62,13 -101,41 8,3 19,-2 23,8 21,44 7,0 67,19l59 23c-43,59 -75,32 -133,75 55,41 -54,20 76,28 20,2 116,-10 141,-11 -21,72 -6,37 -40,83 -5,7 -21,22 -26,28 -4,4 -10,9 -14,13 -47,48 -85,63 -112,148l152 -18 -16 -60c10,2 21,-1 25,10 4,9 16,7 22,10 5,2 14,6 20,9 60,24 -37,14 64,22 2,-81 -23,-6 -64,-115 62,-23 111,-76 146,-129 31,-46 19,-12 42,-79 -26,1 -90,8 -114,7 -70,-2 18,6 -45,-3 -58,-9 -19,3 -53,-18 100,-95 210,-15 216,-11 5,3 13,9 16,11 4,2 11,8 16,11l17 -132c116,30 20,49 131,62l-48 -355 -199 20 -109 -531 256 -76 -15 -201c-199,62 -314,135 -557,179 -205,36 -418,46 -629,45z"/>
  <path class="fil16" d="M14913 23980l-903 -1101 -520 -503c-154,-127 -377,-358 -605,-425 53,-101 113,-160 187,-230l569 -630c239,-309 255,-306 462,-338 233,-37 449,-78 680,-120 228,-41 449,-80 678,-121 316,-56 319,9 578,139 374,187 726,373 1021,596 -44,105 -159,254 -229,361 -82,125 -161,246 -250,375 -168,242 -335,478 -515,709 -183,233 -971,1182 -1153,1288zm-2090 -2006c430,237 806,587 1127,941 165,182 309,363 469,555 581,696 387,701 816,289 449,-430 1807,-2206 1890,-2513 -111,-177 -774,-509 -1023,-633 -234,-118 -324,-225 -610,-166l-1417 253c-314,47 -250,119 -492,358l-588 662c-85,98 -166,107 -172,254z"/>
  <path class="fil17" d="M23434 8924c84,1 69,-16 117,-101 51,-89 60,-98 119,-120 64,145 -97,139 -40,245 54,102 89,-38 158,-104 121,103 143,122 101,163 -67,66 -97,-160 -185,164 63,44 290,227 309,295 84,-23 23,47 89,-40 -37,-153 -297,-197 -243,-376 59,40 79,75 118,98 114,64 81,-124 139,-1 41,89 3,13 -1,62 -7,80 -59,26 47,96 213,-193 -26,-172 70,-271 42,-43 27,-13 104,26 47,-120 104,-91 55,-204 -92,-17 -113,111 -138,-1 -27,-121 110,-73 42,-228 -96,32 -25,-13 -95,74 -42,52 11,9 -50,70 -148,-149 33,-34 -63,-188 -62,17 -16,-9 -62,38 -18,18 -38,56 -51,79 -93,3 9,7 -114,-26 -54,159 -49,114 -108,144l-23 -93c14,-159 -23,-54 -15,-165 5,-73 40,-11 -21,-103 -84,41 -118,135 -168,215 -63,102 -122,141 -91,252z"/>
  <path class="fil18" d="M23991 7705l142 114c-6,120 -69,85 23,172 87,81 104,12 57,152 -292,-240 -223,-158 -211,-244l-8 -71c-32,-94 -28,-27 -3,-123zm-229 -201c-17,48 -59,131 -88,172 -70,99 -30,61 -136,7 -47,113 -99,98 -57,209 62,9 20,-8 81,-26 56,-16 44,17 123,-7 5,-1 13,-4 17,-6 4,-1 13,-6 16,-7 4,-2 11,-7 17,-8l84 91c2,4 11,-8 14,-3l68 -25c94,-7 33,11 58,143 7,38 73,55 -8,99 -103,55 -25,-114 -142,61 -51,76 -102,122 -46,206 123,-38 82,-130 175,-199 62,-37 -32,1 44,4l190 -22c141,-47 19,80 120,-8 75,-65 10,-42 7,-54 -1,-7 -11,-31 -14,-39 -34,-95 -51,-30 118,-278 -43,-61 -100,-99 -113,-126 -47,-93 41,-23 -16,-163 -67,26 -67,25 -123,128l-182 13c-5,0 -14,-1 -18,0 -4,1 -12,0 -16,1 -65,20 2,-70 -30,21 -37,106 77,-12 9,181 -79,-43 -80,-49 -145,-133 56,-173 66,-132 210,-153l97 -13c54,-33 3,-73 -18,-108 -135,64 10,36 -139,45 -71,4 21,29 -157,-3z"/>
  <path class="fil19" d="M23881 6770c28,-134 186,-343 249,-457 112,60 289,248 386,348l-249 436c-144,-61 -259,-240 -386,-327zm-125 -8c39,47 444,450 506,488 51,-41 350,-536 373,-613l-517 -488c-52,61 -333,525 -362,613z"/>
  <path class="fil20" d="M23413 7486c10,50 -52,103 114,72l29 -5c1,0 101,39 79,-54 -11,-46 -59,-36 -29,-101 27,-58 72,-12 100,-16 64,-9 -10,-7 80,-46 161,177 74,111 180,88l32 -2c32,-5 -30,18 49,-6 4,-2 56,-29 71,-36l95 108c114,-43 14,-76 129,-31 30,131 -49,37 -16,165 168,44 -34,-54 210,-6 45,-127 90,-84 63,-198 -40,-32 -113,-103 -122,-79 -16,45 -121,19 -157,35 -29,13 21,5 -56,37l-108 -116c-76,33 0,46 -111,41l-57 2c-3,1 -11,3 -14,3 -137,18 -9,-142 9,-205l-149 -141c-55,146 -9,70 19,184 -40,60 -41,98 -119,137 -77,-129 87,-171 -146,-278 -117,139 33,51 0,206 -126,30 11,-16 -88,-16 -99,0 -50,15 -39,62 10,43 82,32 -6,159 -22,31 -21,27 -42,37z"/>
  <path class="fil19" d="M23184 7882c125,58 260,245 379,325 -26,93 -181,351 -250,424 -112,-58 -268,-237 -362,-338l233 -411zm54 852c67,45 43,30 100,49l352 -569c-119,-120 -406,-431 -544,-490 -27,176 -283,417 -318,621 62,39 404,307 410,389z"/>
  <path class="fil19" d="M24621 9867c-100,-58 -310,-275 -353,-333l242 -398c86,46 293,240 354,348l-243 383zm-481 -292c87,66 427,410 503,438l358 -583c-137,-66 -372,-319 -482,-447 -50,32 -20,0 -69,64l-134 216c-63,102 -139,196 -176,312z"/>
  <path class="fil5" d="M5755 7617c219,-55 544,-222 625,-356 -31,-61 6,1 -41,-62l-307 -458c-36,159 -48,334 -90,485 -51,184 -136,269 -187,391z"/>
  <path class="fil21" d="M16912 17400l222 -6c-41,101 -65,51 -58,130 5,60 28,52 67,61 28,-72 -11,-50 50,-126 37,47 26,30 57,56l49 35c-93,84 -45,14 -65,81l76 18c-37,141 -4,6 -106,90 204,42 -14,37 164,61 -92,43 -33,-19 -50,99l53 48c6,5 48,36 54,38 84,30 93,8 142,-39l-152 18c27,-85 65,-100 112,-148 4,-4 10,-9 14,-13 5,-6 21,-21 26,-28 34,-46 19,-11 40,-83 -25,1 -121,13 -141,11 -130,-8 -21,13 -76,-28 58,-43 90,-16 133,-75l-59 -23c-60,-19 -46,25 -67,-19 -4,-10 -15,-5 -23,-8 39,-28 -47,-20 101,-41 12,-2 85,-2 102,-3 -17,-178 18,-70 38,-212 -132,15 -100,2 -170,-32l-52 -22c22,188 9,88 -24,159 -40,86 26,60 -51,114 -10,-18 -12,-10 -28,-61l-18 -137c-92,21 -113,75 -122,63 -4,-6 -14,10 -22,13 -14,-65 27,-81 -111,-78 -139,4 -119,-17 -105,87z"/>
  <path class="fil13" d="M24237 6936c-93,-42 -150,-125 -227,-189 28,-86 96,-202 152,-265 89,38 39,17 110,96 38,43 70,69 106,109l-141 249zm-356 -166c127,87 242,266 386,327l249 -436c-97,-100 -274,-288 -386,-348 -63,114 -221,323 -249,457z"/>
  <path class="fil4" d="M7744 20072c24,259 1114,170 1325,121 117,-28 112,-22 137,-121 -39,-11 -117,-52 -159,-51 -230,1 57,43 -147,72 -141,82 -684,103 -820,-3 -196,-29 58,-93 -176,-71 -41,4 -119,43 -160,53z"/>
  <path class="fil13" d="M23082 8285c36,-97 92,-194 159,-247 55,54 155,138 192,222l-147 221 -204 -196zm-131 8c94,101 250,280 362,338 69,-73 224,-331 250,-424 -119,-80 -254,-267 -379,-325l-233 411z"/>
  <path class="fil22" d="M24539 9282l203 202 -114 191c-27,31 -16,18 -43,39l-204 -181 158 -251zm325 202c-61,-108 -268,-302 -354,-348l-242 398c43,58 253,275 353,333l243 -383z"/>
  <path class="fil23" d="M16616 18074l369 5 15 347 -360 2 -24 -354zm-41 418c631,96 512,-41 477,-488l-517 -6 40 494z"/>
  <path class="fil18" d="M25077 9364c20,-88 122,-184 111,-246 -18,-96 -35,42 -23,-105 3,-26 6,-43 3,-62l-17 -48c-7,4 -14,11 -20,14l-138 37c-63,11 -32,91 -65,23 -3,-6 -11,7 -10,1l-135 -102 -77 158 269 260c81,74 3,30 102,70z"/>
  <path class="fil13" d="M25424 7684c45,74 64,94 137,132l108 -146c53,35 152,97 115,158 -36,45 0,5 -109,27l-117 -3 -154 229 153 145c36,-92 11,-103 -20,-166l85 -147c79,30 4,17 57,29l117 -17c50,-8 -58,63 67,-14l-3 -298c-163,-8 -219,-32 -351,-72l-85 143z"/>
  <path class="fil23" d="M16449 16835l355 6c48,84 62,242 74,347l-374 -15 -55 -338zm269 417l244 2 -60 -385c-55,-234 -196,-5 -429,-126l-109 13c16,576 115,483 354,496z"/>
  <path class="fil24" d="M16648 17654l89 171c-66,113 -29,-39 -63,100 109,19 92,20 165,-34l29 -27c5,5 9,14 13,18 48,49 -28,57 165,45 -29,-122 -50,-32 -65,-91 -2,-9 -11,-7 -16,-11l77 -33c57,-25 28,6 64,-42 -91,-50 -38,-17 -149,-36 5,-60 40,-43 62,-122 -125,-6 -91,9 -145,-27 -62,-42 69,-42 -131,-46 -29,41 -32,21 -23,135l-72 0z"/>
  <path class="fil2" d="M24378 6687c-36,-40 -68,-66 -106,-109 -71,-79 -21,-58 -110,-96 -56,63 -124,179 -152,265 77,64 134,147 227,189l141 -249z"/>
  <path class="fil25" d="M24958 8060l200 204 42 -41c2,-4 8,-10 11,-14l114 -192c-60,-73 -134,-149 -213,-200 -68,65 -117,159 -154,243z"/>
  <path class="fil2" d="M23082 8285l204 196 147 -221c-37,-84 -137,-168 -192,-222 -67,53 -123,150 -159,247z"/>
  <path class="fil26" d="M16544 16905l217 9 29 205 -215 -8 -31 -206zm334 283c-12,-105 -26,-263 -74,-347l-355 -6 55 338 374 15z"/>
  <path class="fil13" d="M16697 18148l220 -1 11 210 -217 -8 -14 -201zm-57 280l360 -2 -15 -347 -369 -5 24 354z"/>
  <path class="fil2" d="M24381 9533l204 181c27,-21 16,-8 43,-39l114 -191 -203 -202 -158 251z"/>
  <path class="fil27" d="M17343 16815c-5,-5 -12,-21 -15,-16 -3,4 -12,-13 -15,-16 -32,-27 -1,-6 -45,-36 -4,6 -7,9 -9,18 -1,9 -6,14 -9,17 -66,74 -42,27 -135,69 25,54 15,22 50,58 43,44 2,-57 47,62 85,-28 22,-37 106,-71 40,53 68,62 85,85l53 102c2,3 7,10 12,15l62 -72c23,-15 54,-18 85,-30l-10 -139 -83 68c-50,32 -45,22 -112,29 15,-129 99,-106 8,-230l-63 67c-3,5 -7,15 -12,20z"/>
  <path class="fil18" d="M17159 18459c57,10 120,9 176,-21l64 -147c-92,-66 -101,-58 -131,-172l-131 9 22 331z"/>
  <path class="fil28" d="M24484 8265c-138,-53 -27,-45 -132,-18 -4,1 -11,3 -16,4l-81 4c-55,46 -8,95 29,87l60 -18c4,-1 12,-2 17,-2 4,-1 12,1 17,0 168,-16 54,-71 159,12 76,-71 14,-35 104,-36 126,-1 36,-80 30,-138 -9,-87 65,-18 -34,-123 -76,49 -117,151 -153,228z"/>
  <path class="fil19" d="M24635 7411c-15,122 32,95 93,183 85,-36 35,-23 121,-67 45,102 49,102 151,118 7,-135 -19,-105 -193,-275 -124,105 -24,35 -136,29 -5,-1 -29,9 -36,12z"/>
  <path class="fil15" d="M17713 16743l71 388 161 -23c-20,-241 -94,162 -145,-282 123,-80 109,19 115,-133l-202 50z"/>
  <path class="fil13" d="M24156 7991c-92,-87 -29,-52 -23,-172l-142 -114c-25,96 -29,29 3,123l8 71c-12,86 -81,4 211,244 47,-140 30,-71 -57,-152z"/>
  <polygon class="fil2" points="16711,18349 16928,18357 16917,18147 16697,18148 "/>
  <polygon class="fil29" points="16575,17111 16790,17119 16761,16914 16544,16905 "/>
  <path class="fil22" d="M23113 6113l-18 149c90,88 194,110 236,-35l-62 -14c79,-54 45,-20 53,-54 -42,-61 8,-74 -209,-46z"/>
  <path class="fil30" d="M23113 6113c217,-28 167,-15 209,46 -8,34 26,0 -53,54l62 14c-42,145 -146,123 -236,35l18 -149zm0 0c-61,18 -11,-52 -57,44 -8,16 -12,56 -9,75 8,63 47,89 83,128l195 -11c54,-97 13,-124 121,-155l-35 -22c-118,-77 -102,-135 -224,-114 -124,22 -65,36 -74,55z"/>
  <path class="fil25" d="M17769 17868l4 175c228,18 223,-3 192,-190l-196 15z"/>
  <path class="fil27" d="M17168 17046c-56,-67 -64,-99 -169,-46l161 159c41,62 -13,45 58,94 30,-43 26,-7 27,-128 134,-36 62,9 120,-50 -60,-50 -7,-31 -197,-29z"/>
  <path class="fil18" d="M16648 17654l-17 -65 -134 -8c2,163 -3,303 71,348 48,-71 18,-132 11,-264l69 -11z"/>
  <path class="fil2" d="M13161 21786c-137,260 253,215 131,16 -17,-28 -13,-27 -49,-36 -90,-23 -81,19 -82,20z"/>
  <path class="fil27" d="M17830 17444c57,-216 40,-8 52,-162 -59,0 -28,-10 -90,67l-75 -62c-4,6 -9,13 -12,17 -3,4 -9,12 -13,17 -3,5 -8,12 -12,16l-50 63c87,60 55,62 137,83 22,6 25,1 50,0l13 -39z"/>
  <path class="fil2" d="M16843 21412c108,-56 127,-188 -58,-193 -45,94 -54,153 58,193z"/>
  <path class="fil23" d="M17654 18224l-207 -65c-12,70 -28,93 49,142l72 27 86 -104z"/>
  <path class="fil6" d="M24645 8914c9,-27 68,-80 -138,-165 -1,0 -70,125 70,175 134,49 19,17 68,-10z"/>
  <path class="fil23" d="M24360 8188c23,-7 52,2 100,-83 52,-92 35,-69 -23,-123 -126,92 -108,146 -77,206z"/>
  <path class="fil6" d="M24112 8459c91,-98 -31,-158 -105,-203 -52,123 18,160 105,203z"/>
  <path class="fil28" d="M23762 8113c33,-104 53,-23 -92,-209 -80,77 -71,138 92,209z"/>
  <path class="fil28" d="M23887 8640c76,-84 109,-127 57,-210 -107,50 -164,137 -57,210z"/>
  <path class="fil3" d="M26799 8660c4,209 42,393 148,512 351,395 900,498 1210,60 392,-555 -29,-1557 -662,-1537 -30,276 -37,454 -176,649 -171,241 -446,220 -520,316z"/>
  <path class="fil3" d="M26865 10458c54,304 552,213 464,-119 -70,-264 -520,-204 -464,119z"/>
  <path class="fil18" d="M26865 10458c-56,-323 394,-383 464,-119 88,332 -410,423 -464,119zm119 -309c-346,158 -109,661 231,514 319,-138 135,-681 -231,-514z"/>
 </g>
</svg>
