<?xml version="1.0" encoding="UTF-8"?>
<!DOCTYPE svg PUBLIC "-//W3C//DTD SVG 1.1//EN" "http://www.w3.org/Graphics/SVG/1.1/DTD/svg11.dtd">
<!-- Creator: CorelDRAW X7 -->
<svg xmlns="http://www.w3.org/2000/svg" xml:space="preserve" width="210mm" height="297mm" version="1.1" style="shape-rendering:geometricPrecision; text-rendering:geometricPrecision; image-rendering:optimizeQuality; fill-rule:evenodd; clip-rule:evenodd"
viewBox="0 0 21000 29700"
 xmlns:xlink="http://www.w3.org/1999/xlink">
 <defs>
  <style type="text/css">
   <![CDATA[
    .fil0 {fill:#2F97F0}
   ]]>
  </style>
 </defs>
 <g id="Layer_x0020_1">
  <metadata id="CorelCorpID_0Corel-Layer"/>
  <g id="_2770343368960">
   <path class="fil0" d="M13286 7647l866 165c272,55 588,118 860,172 582,117 1174,219 1739,351l0 8466 -3465 -688 0 -8466zm-4233 9156c0,-1052 0,-2101 0,-3151 0,-498 -57,-349 291,-873 53,-80 106,-158 159,-237 507,-764 878,-1449 1305,-2241l265 -528c204,-406 416,-971 505,-1452 26,-141 5,-246 11,-386 8,-171 68,-126 239,-158l664 -130 0 8466 -3439 690zm-4259 -9156l803 149c232,45 75,87 129,480 56,406 235,859 383,1204l510 1051c85,171 186,337 283,510 318,570 825,1388 1198,1950 202,305 159,171 159,635 0,1058 0,2116 0,3175 -123,-11 -293,-56 -421,-82l-1300 -260c-586,-118 -1175,-214 -1744,-346l0 -8466zm1746 423c0,-690 171,-1133 641,-1607 387,-391 890,-576 1454,-606 569,-31 1185,297 1470,579 494,489 667,928 667,1634 0,476 -360,1117 -498,1459 -43,105 -76,169 -127,270l-279 515c-295,486 -537,970 -884,1497 -60,92 -93,153 -153,244 -55,82 -124,155 -148,248l-647 -967c-104,-173 -201,-322 -297,-497l-285 -509c-179,-301 -388,-734 -535,-1051 -121,-262 -379,-868 -379,-1209zm-662 -1058c-293,-6 -1050,-264 -1561,-264 -147,0 -317,170 -317,317l0 9471c0,190 193,305 377,337 669,116 3929,827 4306,827 296,0 4035,-820 4206,-820 341,0 3753,820 4339,820 147,0 317,-170 317,-317l0 -9471c0,-358 -625,-387 -972,-457 -437,-87 -3386,-707 -3711,-707 -297,0 -1151,241 -1428,264 -62,-263 -230,-520 -375,-736 -316,-464 -761,-787 -1266,-1009 -654,-289 -1595,-289 -2256,-9 -701,298 -1111,705 -1489,1342 -55,92 -145,305 -170,412z"/>
   <path class="fil0" d="M8233 8017c0,-620 846,-620 846,0 0,529 -846,529 -846,0zm-820 -158c0,403 23,700 349,1026 473,473 1315,473 1788,0 473,-473 473,-1315 0,-1788 -473,-473 -1315,-473 -1788,0 -149,149 -349,475 -349,762z"/>
  </g>
 </g>
</svg>
